G75*
%MOIN*%
%OFA0B0*%
%FSLAX25Y25*%
%IPPOS*%
%LPD*%
%AMOC8*
5,1,8,0,0,1.08239X$1,22.5*
%
%ADD10C,0.00500*%
%ADD11OC8,0.06000*%
%ADD12C,0.08200*%
%ADD13R,0.06737X0.06737*%
%ADD14C,0.04737*%
%ADD15C,0.13800*%
%ADD16C,0.03778*%
D10*
X0125306Y0055234D02*
X0125035Y0055509D01*
X0124832Y0055838D01*
X0124708Y0056204D01*
X0124668Y0056588D01*
X0124702Y0056970D01*
X0124820Y0057334D01*
X0125016Y0057663D01*
X0125281Y0057940D01*
X0125600Y0058151D01*
X0125959Y0058286D01*
X0126338Y0058338D01*
X0126739Y0058303D01*
X0127121Y0058180D01*
X0127467Y0057974D01*
X0127758Y0057697D01*
X0127981Y0057362D01*
X0128123Y0056986D01*
X0128178Y0056588D01*
X0128127Y0056195D01*
X0127990Y0055823D01*
X0127773Y0055491D01*
X0127488Y0055216D01*
X0127149Y0055011D01*
X0126773Y0054886D01*
X0126378Y0054848D01*
X0125995Y0054895D01*
X0125631Y0055025D01*
X0125306Y0055234D01*
X0125042Y0055503D02*
X0127781Y0055503D01*
X0128055Y0056001D02*
X0124777Y0056001D01*
X0124677Y0056500D02*
X0128166Y0056500D01*
X0128118Y0056998D02*
X0124711Y0056998D01*
X0124917Y0057497D02*
X0127891Y0057497D01*
X0127432Y0057995D02*
X0125364Y0057995D01*
X0125690Y0055004D02*
X0127130Y0055004D01*
X0126378Y0065868D02*
X0125995Y0065915D01*
X0125631Y0066046D01*
X0125306Y0066254D01*
X0125035Y0066529D01*
X0124832Y0066858D01*
X0124708Y0067224D01*
X0124668Y0067608D01*
X0124702Y0067990D01*
X0124820Y0068354D01*
X0125016Y0068683D01*
X0125281Y0068960D01*
X0125600Y0069171D01*
X0125959Y0069306D01*
X0126338Y0069358D01*
X0126739Y0069323D01*
X0127121Y0069200D01*
X0127467Y0068994D01*
X0127758Y0068717D01*
X0127981Y0068382D01*
X0128123Y0068006D01*
X0128178Y0067608D01*
X0128127Y0067215D01*
X0127990Y0066843D01*
X0127773Y0066511D01*
X0127488Y0066236D01*
X0127149Y0066031D01*
X0126773Y0065906D01*
X0126378Y0065868D01*
X0125837Y0065971D02*
X0126970Y0065971D01*
X0127730Y0066470D02*
X0125093Y0066470D01*
X0124795Y0066968D02*
X0128036Y0066968D01*
X0128159Y0067467D02*
X0124683Y0067467D01*
X0124700Y0067965D02*
X0128128Y0067965D01*
X0127926Y0068464D02*
X0124885Y0068464D01*
X0125284Y0068962D02*
X0127501Y0068962D01*
X0141616Y0278584D02*
X0142001Y0278624D01*
X0142366Y0278748D01*
X0142695Y0278951D01*
X0142971Y0279222D01*
X0143179Y0279547D01*
X0143310Y0279911D01*
X0143356Y0280294D01*
X0143318Y0280689D01*
X0143194Y0281065D01*
X0142989Y0281404D01*
X0142713Y0281689D01*
X0142381Y0281906D01*
X0142009Y0282043D01*
X0141616Y0282094D01*
X0141218Y0282039D01*
X0140842Y0281897D01*
X0140507Y0281674D01*
X0140230Y0281383D01*
X0140025Y0281037D01*
X0139901Y0280655D01*
X0139866Y0280254D01*
X0139918Y0279875D01*
X0140053Y0279516D01*
X0140264Y0279197D01*
X0140541Y0278932D01*
X0140870Y0278736D01*
X0141235Y0278618D01*
X0141616Y0278584D01*
X0142508Y0278836D02*
X0140703Y0278836D01*
X0140173Y0279334D02*
X0143043Y0279334D01*
X0143282Y0279833D02*
X0139934Y0279833D01*
X0139873Y0280331D02*
X0143353Y0280331D01*
X0143272Y0280830D02*
X0139958Y0280830D01*
X0140197Y0281328D02*
X0143035Y0281328D01*
X0142502Y0281827D02*
X0140737Y0281827D01*
X0150921Y0280655D02*
X0151045Y0281037D01*
X0151250Y0281383D01*
X0151527Y0281674D01*
X0151862Y0281897D01*
X0152238Y0282039D01*
X0152636Y0282094D01*
X0153030Y0282043D01*
X0153401Y0281906D01*
X0153733Y0281689D01*
X0154009Y0281404D01*
X0154214Y0281065D01*
X0154339Y0280689D01*
X0154376Y0280294D01*
X0154330Y0279911D01*
X0154199Y0279547D01*
X0153991Y0279222D01*
X0153715Y0278951D01*
X0153386Y0278748D01*
X0153021Y0278624D01*
X0152636Y0278584D01*
X0152255Y0278618D01*
X0151891Y0278736D01*
X0151562Y0278932D01*
X0151284Y0279197D01*
X0151073Y0279516D01*
X0150938Y0279875D01*
X0150886Y0280254D01*
X0150921Y0280655D01*
X0150978Y0280830D02*
X0154292Y0280830D01*
X0154373Y0280331D02*
X0150893Y0280331D01*
X0150954Y0279833D02*
X0154302Y0279833D01*
X0154063Y0279334D02*
X0151193Y0279334D01*
X0151723Y0278836D02*
X0153528Y0278836D01*
X0154055Y0281328D02*
X0151218Y0281328D01*
X0151757Y0281827D02*
X0153522Y0281827D01*
X0205772Y0280061D02*
X0205807Y0280462D01*
X0205930Y0280844D01*
X0206136Y0281190D01*
X0206413Y0281481D01*
X0206748Y0281704D01*
X0207124Y0281846D01*
X0207522Y0281901D01*
X0207915Y0281850D01*
X0208287Y0281713D01*
X0208619Y0281496D01*
X0208894Y0281211D01*
X0209099Y0280872D01*
X0209224Y0280496D01*
X0209262Y0280101D01*
X0209215Y0279718D01*
X0209084Y0279354D01*
X0208876Y0279029D01*
X0208601Y0278758D01*
X0208272Y0278556D01*
X0207906Y0278431D01*
X0207522Y0278391D01*
X0207140Y0278425D01*
X0206776Y0278543D01*
X0206447Y0278739D01*
X0206170Y0279004D01*
X0205959Y0279323D01*
X0205824Y0279682D01*
X0205772Y0280061D01*
X0205803Y0279833D02*
X0209229Y0279833D01*
X0209240Y0280331D02*
X0205796Y0280331D01*
X0205925Y0280830D02*
X0209113Y0280830D01*
X0208781Y0281328D02*
X0206267Y0281328D01*
X0207073Y0281827D02*
X0207978Y0281827D01*
X0209072Y0279334D02*
X0205954Y0279334D01*
X0206346Y0278836D02*
X0208680Y0278836D01*
X0216823Y0279833D02*
X0220249Y0279833D01*
X0220235Y0279718D02*
X0220105Y0279354D01*
X0219896Y0279029D01*
X0219621Y0278758D01*
X0219292Y0278556D01*
X0218926Y0278431D01*
X0218542Y0278391D01*
X0218160Y0278425D01*
X0217796Y0278543D01*
X0217467Y0278739D01*
X0217190Y0279004D01*
X0216979Y0279323D01*
X0216844Y0279682D01*
X0216792Y0280061D01*
X0216827Y0280462D01*
X0216950Y0280844D01*
X0217156Y0281190D01*
X0217433Y0281481D01*
X0217768Y0281704D01*
X0218144Y0281846D01*
X0218542Y0281901D01*
X0218935Y0281850D01*
X0219307Y0281713D01*
X0219639Y0281496D01*
X0219914Y0281211D01*
X0220119Y0280872D01*
X0220244Y0280496D01*
X0220282Y0280101D01*
X0220235Y0279718D01*
X0220092Y0279334D02*
X0216974Y0279334D01*
X0217366Y0278836D02*
X0219700Y0278836D01*
X0220260Y0280331D02*
X0216816Y0280331D01*
X0216946Y0280830D02*
X0220134Y0280830D01*
X0219801Y0281328D02*
X0217287Y0281328D01*
X0218093Y0281827D02*
X0218998Y0281827D01*
X0082089Y0280137D02*
X0082042Y0279753D01*
X0081912Y0279390D01*
X0081703Y0279064D01*
X0081428Y0278794D01*
X0081099Y0278591D01*
X0080733Y0278467D01*
X0080349Y0278427D01*
X0079968Y0278461D01*
X0079603Y0278579D01*
X0079274Y0278775D01*
X0078997Y0279039D01*
X0078786Y0279359D01*
X0078651Y0279717D01*
X0078599Y0280097D01*
X0078634Y0280497D01*
X0078757Y0280880D01*
X0078963Y0281226D01*
X0079240Y0281517D01*
X0079575Y0281739D01*
X0079951Y0281881D01*
X0080349Y0281936D01*
X0080742Y0281885D01*
X0081114Y0281748D01*
X0081446Y0281532D01*
X0081721Y0281247D01*
X0081927Y0280908D01*
X0082051Y0280531D01*
X0082089Y0280137D01*
X0082070Y0280331D02*
X0078620Y0280331D01*
X0078635Y0279833D02*
X0082052Y0279833D01*
X0081876Y0279334D02*
X0078802Y0279334D01*
X0079210Y0278836D02*
X0081471Y0278836D01*
X0081952Y0280830D02*
X0078741Y0280830D01*
X0079060Y0281328D02*
X0081643Y0281328D01*
X0080901Y0281827D02*
X0079806Y0281827D01*
X0071031Y0280531D02*
X0071069Y0280137D01*
X0071022Y0279753D01*
X0070892Y0279390D01*
X0070683Y0279064D01*
X0070408Y0278794D01*
X0070079Y0278591D01*
X0069713Y0278467D01*
X0069329Y0278427D01*
X0068947Y0278461D01*
X0068583Y0278579D01*
X0068254Y0278775D01*
X0067977Y0279039D01*
X0067766Y0279359D01*
X0067631Y0279717D01*
X0067579Y0280097D01*
X0067614Y0280497D01*
X0067737Y0280880D01*
X0067943Y0281226D01*
X0068220Y0281517D01*
X0068555Y0281739D01*
X0068931Y0281881D01*
X0069329Y0281936D01*
X0069722Y0281885D01*
X0070094Y0281748D01*
X0070426Y0281532D01*
X0070701Y0281247D01*
X0070906Y0280908D01*
X0071031Y0280531D01*
X0071050Y0280331D02*
X0067599Y0280331D01*
X0067615Y0279833D02*
X0071032Y0279833D01*
X0070856Y0279334D02*
X0067782Y0279334D01*
X0068190Y0278836D02*
X0070451Y0278836D01*
X0070932Y0280830D02*
X0067721Y0280830D01*
X0068040Y0281328D02*
X0070623Y0281328D01*
X0069881Y0281827D02*
X0068786Y0281827D01*
D11*
X0071284Y0354031D03*
X0080099Y0390468D03*
X0071284Y0394031D03*
X0120099Y0390468D03*
X0171217Y0395094D03*
X0211217Y0395094D03*
X0220095Y0394031D03*
X0220095Y0354031D03*
D12*
X0086521Y0057157D03*
X0086521Y0067157D03*
X0096521Y0067157D03*
X0096521Y0057157D03*
X0106521Y0057157D03*
X0106521Y0067157D03*
X0172847Y0063531D03*
X0182847Y0063531D03*
X0192847Y0063531D03*
X0213595Y0065031D03*
X0213595Y0055031D03*
X0159587Y0388653D03*
X0159587Y0398653D03*
X0149587Y0398653D03*
X0149587Y0388653D03*
X0139587Y0388653D03*
X0139587Y0398653D03*
X0129587Y0398653D03*
X0129587Y0388653D03*
D13*
X0117343Y0356027D03*
X0129154Y0344216D03*
X0133091Y0308783D03*
X0125217Y0296972D03*
X0124221Y0264031D03*
X0162052Y0297980D03*
X0171304Y0291484D03*
X0164221Y0264031D03*
X0204221Y0264031D03*
X0210674Y0295421D03*
X0218548Y0307232D03*
X0214611Y0342665D03*
X0202800Y0354476D03*
X0175241Y0354476D03*
X0163430Y0346602D03*
X0089784Y0356027D03*
X0077973Y0348153D03*
X0076595Y0299531D03*
X0085847Y0293035D03*
X0084221Y0264031D03*
X0094221Y0084031D03*
X0134221Y0084031D03*
X0154221Y0084031D03*
D14*
X0187052Y0287547D03*
X0101595Y0289098D03*
D15*
X0099249Y0372803D03*
X0189249Y0372803D03*
X0144249Y0062803D03*
D16*
X0126595Y0109031D03*
M02*
