%
M48
M72
T01C0.01378
T02C0.03200
T03C0.03937
T04C0.04000
T05C0.13000
%
T01
X126595Y109031
T02
X71284Y354031
X80099Y390468
X71284Y394031
X120099Y390468
X171217Y395094
X211217Y395094
X220095Y394031
X220095Y354031
T03
X214611Y342665
X202800Y354476
X218548Y307232
X210674Y295421
X204221Y264031
X187052Y287547
X171304Y291484
X162052Y297980
X164221Y264031
X133091Y308783
X125217Y296972
X124221Y264031
X101595Y289098
X85847Y293035
X76595Y299531
X84221Y264031
X129154Y344216
X117343Y356027
X89784Y356027
X77973Y348153
X163430Y346602
X175241Y354476
X154221Y84031
X134221Y84031
X94221Y84031
T04
X86521Y57157
X86521Y67157
X96521Y67157
X96521Y57157
X106521Y57157
X106521Y67157
X126398Y67578
X126398Y56578
X172847Y63531
X182847Y63531
X192847Y63531
X213595Y65031
X213595Y55031
X218552Y280121
X207552Y280121
X152646Y280314
X141646Y280314
X80359Y280157
X69359Y280157
X129587Y388653
X129587Y398653
X139587Y398653
X139587Y388653
X149587Y388653
X149587Y398653
X159587Y398653
X159587Y388653
T05
X189249Y372803
X99249Y372803
X144249Y62803
M30
