G75*
%MOIN*%
%OFA0B0*%
%FSLAX25Y25*%
%IPPOS*%
%LPD*%
%AMOC8*
5,1,8,0,0,1.08239X$1,22.5*
%
%ADD10C,0.00000*%
%ADD11C,0.00600*%
%ADD12C,0.01000*%
%ADD13R,0.03400X0.02400*%
%ADD14C,0.00500*%
%ADD15R,0.02400X0.03400*%
%ADD16C,0.00800*%
%ADD17C,0.00700*%
%ADD18C,0.00400*%
D10*
X0057595Y0046031D02*
X0057595Y0412173D01*
X0230823Y0412173D01*
X0230823Y0046031D01*
X0057595Y0046031D01*
X0137749Y0062803D02*
X0137751Y0062964D01*
X0137757Y0063124D01*
X0137767Y0063285D01*
X0137781Y0063445D01*
X0137799Y0063605D01*
X0137820Y0063764D01*
X0137846Y0063923D01*
X0137876Y0064081D01*
X0137909Y0064238D01*
X0137947Y0064395D01*
X0137988Y0064550D01*
X0138033Y0064704D01*
X0138082Y0064857D01*
X0138135Y0065009D01*
X0138191Y0065160D01*
X0138252Y0065309D01*
X0138315Y0065457D01*
X0138383Y0065603D01*
X0138454Y0065747D01*
X0138528Y0065889D01*
X0138606Y0066030D01*
X0138688Y0066168D01*
X0138773Y0066305D01*
X0138861Y0066439D01*
X0138953Y0066571D01*
X0139048Y0066701D01*
X0139146Y0066829D01*
X0139247Y0066954D01*
X0139351Y0067076D01*
X0139458Y0067196D01*
X0139568Y0067313D01*
X0139681Y0067428D01*
X0139797Y0067539D01*
X0139916Y0067648D01*
X0140037Y0067753D01*
X0140161Y0067856D01*
X0140287Y0067956D01*
X0140415Y0068052D01*
X0140546Y0068145D01*
X0140680Y0068235D01*
X0140815Y0068322D01*
X0140953Y0068405D01*
X0141092Y0068485D01*
X0141234Y0068561D01*
X0141377Y0068634D01*
X0141522Y0068703D01*
X0141669Y0068769D01*
X0141817Y0068831D01*
X0141967Y0068889D01*
X0142118Y0068944D01*
X0142271Y0068995D01*
X0142425Y0069042D01*
X0142580Y0069085D01*
X0142736Y0069124D01*
X0142892Y0069160D01*
X0143050Y0069191D01*
X0143208Y0069219D01*
X0143367Y0069243D01*
X0143527Y0069263D01*
X0143687Y0069279D01*
X0143847Y0069291D01*
X0144008Y0069299D01*
X0144169Y0069303D01*
X0144329Y0069303D01*
X0144490Y0069299D01*
X0144651Y0069291D01*
X0144811Y0069279D01*
X0144971Y0069263D01*
X0145131Y0069243D01*
X0145290Y0069219D01*
X0145448Y0069191D01*
X0145606Y0069160D01*
X0145762Y0069124D01*
X0145918Y0069085D01*
X0146073Y0069042D01*
X0146227Y0068995D01*
X0146380Y0068944D01*
X0146531Y0068889D01*
X0146681Y0068831D01*
X0146829Y0068769D01*
X0146976Y0068703D01*
X0147121Y0068634D01*
X0147264Y0068561D01*
X0147406Y0068485D01*
X0147545Y0068405D01*
X0147683Y0068322D01*
X0147818Y0068235D01*
X0147952Y0068145D01*
X0148083Y0068052D01*
X0148211Y0067956D01*
X0148337Y0067856D01*
X0148461Y0067753D01*
X0148582Y0067648D01*
X0148701Y0067539D01*
X0148817Y0067428D01*
X0148930Y0067313D01*
X0149040Y0067196D01*
X0149147Y0067076D01*
X0149251Y0066954D01*
X0149352Y0066829D01*
X0149450Y0066701D01*
X0149545Y0066571D01*
X0149637Y0066439D01*
X0149725Y0066305D01*
X0149810Y0066168D01*
X0149892Y0066030D01*
X0149970Y0065889D01*
X0150044Y0065747D01*
X0150115Y0065603D01*
X0150183Y0065457D01*
X0150246Y0065309D01*
X0150307Y0065160D01*
X0150363Y0065009D01*
X0150416Y0064857D01*
X0150465Y0064704D01*
X0150510Y0064550D01*
X0150551Y0064395D01*
X0150589Y0064238D01*
X0150622Y0064081D01*
X0150652Y0063923D01*
X0150678Y0063764D01*
X0150699Y0063605D01*
X0150717Y0063445D01*
X0150731Y0063285D01*
X0150741Y0063124D01*
X0150747Y0062964D01*
X0150749Y0062803D01*
X0150747Y0062642D01*
X0150741Y0062482D01*
X0150731Y0062321D01*
X0150717Y0062161D01*
X0150699Y0062001D01*
X0150678Y0061842D01*
X0150652Y0061683D01*
X0150622Y0061525D01*
X0150589Y0061368D01*
X0150551Y0061211D01*
X0150510Y0061056D01*
X0150465Y0060902D01*
X0150416Y0060749D01*
X0150363Y0060597D01*
X0150307Y0060446D01*
X0150246Y0060297D01*
X0150183Y0060149D01*
X0150115Y0060003D01*
X0150044Y0059859D01*
X0149970Y0059717D01*
X0149892Y0059576D01*
X0149810Y0059438D01*
X0149725Y0059301D01*
X0149637Y0059167D01*
X0149545Y0059035D01*
X0149450Y0058905D01*
X0149352Y0058777D01*
X0149251Y0058652D01*
X0149147Y0058530D01*
X0149040Y0058410D01*
X0148930Y0058293D01*
X0148817Y0058178D01*
X0148701Y0058067D01*
X0148582Y0057958D01*
X0148461Y0057853D01*
X0148337Y0057750D01*
X0148211Y0057650D01*
X0148083Y0057554D01*
X0147952Y0057461D01*
X0147818Y0057371D01*
X0147683Y0057284D01*
X0147545Y0057201D01*
X0147406Y0057121D01*
X0147264Y0057045D01*
X0147121Y0056972D01*
X0146976Y0056903D01*
X0146829Y0056837D01*
X0146681Y0056775D01*
X0146531Y0056717D01*
X0146380Y0056662D01*
X0146227Y0056611D01*
X0146073Y0056564D01*
X0145918Y0056521D01*
X0145762Y0056482D01*
X0145606Y0056446D01*
X0145448Y0056415D01*
X0145290Y0056387D01*
X0145131Y0056363D01*
X0144971Y0056343D01*
X0144811Y0056327D01*
X0144651Y0056315D01*
X0144490Y0056307D01*
X0144329Y0056303D01*
X0144169Y0056303D01*
X0144008Y0056307D01*
X0143847Y0056315D01*
X0143687Y0056327D01*
X0143527Y0056343D01*
X0143367Y0056363D01*
X0143208Y0056387D01*
X0143050Y0056415D01*
X0142892Y0056446D01*
X0142736Y0056482D01*
X0142580Y0056521D01*
X0142425Y0056564D01*
X0142271Y0056611D01*
X0142118Y0056662D01*
X0141967Y0056717D01*
X0141817Y0056775D01*
X0141669Y0056837D01*
X0141522Y0056903D01*
X0141377Y0056972D01*
X0141234Y0057045D01*
X0141092Y0057121D01*
X0140953Y0057201D01*
X0140815Y0057284D01*
X0140680Y0057371D01*
X0140546Y0057461D01*
X0140415Y0057554D01*
X0140287Y0057650D01*
X0140161Y0057750D01*
X0140037Y0057853D01*
X0139916Y0057958D01*
X0139797Y0058067D01*
X0139681Y0058178D01*
X0139568Y0058293D01*
X0139458Y0058410D01*
X0139351Y0058530D01*
X0139247Y0058652D01*
X0139146Y0058777D01*
X0139048Y0058905D01*
X0138953Y0059035D01*
X0138861Y0059167D01*
X0138773Y0059301D01*
X0138688Y0059438D01*
X0138606Y0059576D01*
X0138528Y0059717D01*
X0138454Y0059859D01*
X0138383Y0060003D01*
X0138315Y0060149D01*
X0138252Y0060297D01*
X0138191Y0060446D01*
X0138135Y0060597D01*
X0138082Y0060749D01*
X0138033Y0060902D01*
X0137988Y0061056D01*
X0137947Y0061211D01*
X0137909Y0061368D01*
X0137876Y0061525D01*
X0137846Y0061683D01*
X0137820Y0061842D01*
X0137799Y0062001D01*
X0137781Y0062161D01*
X0137767Y0062321D01*
X0137757Y0062482D01*
X0137751Y0062642D01*
X0137749Y0062803D01*
X0099626Y0289098D02*
X0099628Y0289186D01*
X0099634Y0289274D01*
X0099644Y0289362D01*
X0099658Y0289450D01*
X0099675Y0289536D01*
X0099697Y0289622D01*
X0099722Y0289706D01*
X0099752Y0289790D01*
X0099784Y0289872D01*
X0099821Y0289952D01*
X0099861Y0290031D01*
X0099905Y0290108D01*
X0099952Y0290183D01*
X0100002Y0290255D01*
X0100056Y0290326D01*
X0100112Y0290393D01*
X0100172Y0290459D01*
X0100234Y0290521D01*
X0100300Y0290581D01*
X0100367Y0290637D01*
X0100438Y0290691D01*
X0100510Y0290741D01*
X0100585Y0290788D01*
X0100662Y0290832D01*
X0100741Y0290872D01*
X0100821Y0290909D01*
X0100903Y0290941D01*
X0100987Y0290971D01*
X0101071Y0290996D01*
X0101157Y0291018D01*
X0101243Y0291035D01*
X0101331Y0291049D01*
X0101419Y0291059D01*
X0101507Y0291065D01*
X0101595Y0291067D01*
X0101683Y0291065D01*
X0101771Y0291059D01*
X0101859Y0291049D01*
X0101947Y0291035D01*
X0102033Y0291018D01*
X0102119Y0290996D01*
X0102203Y0290971D01*
X0102287Y0290941D01*
X0102369Y0290909D01*
X0102449Y0290872D01*
X0102528Y0290832D01*
X0102605Y0290788D01*
X0102680Y0290741D01*
X0102752Y0290691D01*
X0102823Y0290637D01*
X0102890Y0290581D01*
X0102956Y0290521D01*
X0103018Y0290459D01*
X0103078Y0290393D01*
X0103134Y0290326D01*
X0103188Y0290255D01*
X0103238Y0290183D01*
X0103285Y0290108D01*
X0103329Y0290031D01*
X0103369Y0289952D01*
X0103406Y0289872D01*
X0103438Y0289790D01*
X0103468Y0289706D01*
X0103493Y0289622D01*
X0103515Y0289536D01*
X0103532Y0289450D01*
X0103546Y0289362D01*
X0103556Y0289274D01*
X0103562Y0289186D01*
X0103564Y0289098D01*
X0103562Y0289010D01*
X0103556Y0288922D01*
X0103546Y0288834D01*
X0103532Y0288746D01*
X0103515Y0288660D01*
X0103493Y0288574D01*
X0103468Y0288490D01*
X0103438Y0288406D01*
X0103406Y0288324D01*
X0103369Y0288244D01*
X0103329Y0288165D01*
X0103285Y0288088D01*
X0103238Y0288013D01*
X0103188Y0287941D01*
X0103134Y0287870D01*
X0103078Y0287803D01*
X0103018Y0287737D01*
X0102956Y0287675D01*
X0102890Y0287615D01*
X0102823Y0287559D01*
X0102752Y0287505D01*
X0102680Y0287455D01*
X0102605Y0287408D01*
X0102528Y0287364D01*
X0102449Y0287324D01*
X0102369Y0287287D01*
X0102287Y0287255D01*
X0102203Y0287225D01*
X0102119Y0287200D01*
X0102033Y0287178D01*
X0101947Y0287161D01*
X0101859Y0287147D01*
X0101771Y0287137D01*
X0101683Y0287131D01*
X0101595Y0287129D01*
X0101507Y0287131D01*
X0101419Y0287137D01*
X0101331Y0287147D01*
X0101243Y0287161D01*
X0101157Y0287178D01*
X0101071Y0287200D01*
X0100987Y0287225D01*
X0100903Y0287255D01*
X0100821Y0287287D01*
X0100741Y0287324D01*
X0100662Y0287364D01*
X0100585Y0287408D01*
X0100510Y0287455D01*
X0100438Y0287505D01*
X0100367Y0287559D01*
X0100300Y0287615D01*
X0100234Y0287675D01*
X0100172Y0287737D01*
X0100112Y0287803D01*
X0100056Y0287870D01*
X0100002Y0287941D01*
X0099952Y0288013D01*
X0099905Y0288088D01*
X0099861Y0288165D01*
X0099821Y0288244D01*
X0099784Y0288324D01*
X0099752Y0288406D01*
X0099722Y0288490D01*
X0099697Y0288574D01*
X0099675Y0288660D01*
X0099658Y0288746D01*
X0099644Y0288834D01*
X0099634Y0288922D01*
X0099628Y0289010D01*
X0099626Y0289098D01*
X0092749Y0372803D02*
X0092751Y0372964D01*
X0092757Y0373124D01*
X0092767Y0373285D01*
X0092781Y0373445D01*
X0092799Y0373605D01*
X0092820Y0373764D01*
X0092846Y0373923D01*
X0092876Y0374081D01*
X0092909Y0374238D01*
X0092947Y0374395D01*
X0092988Y0374550D01*
X0093033Y0374704D01*
X0093082Y0374857D01*
X0093135Y0375009D01*
X0093191Y0375160D01*
X0093252Y0375309D01*
X0093315Y0375457D01*
X0093383Y0375603D01*
X0093454Y0375747D01*
X0093528Y0375889D01*
X0093606Y0376030D01*
X0093688Y0376168D01*
X0093773Y0376305D01*
X0093861Y0376439D01*
X0093953Y0376571D01*
X0094048Y0376701D01*
X0094146Y0376829D01*
X0094247Y0376954D01*
X0094351Y0377076D01*
X0094458Y0377196D01*
X0094568Y0377313D01*
X0094681Y0377428D01*
X0094797Y0377539D01*
X0094916Y0377648D01*
X0095037Y0377753D01*
X0095161Y0377856D01*
X0095287Y0377956D01*
X0095415Y0378052D01*
X0095546Y0378145D01*
X0095680Y0378235D01*
X0095815Y0378322D01*
X0095953Y0378405D01*
X0096092Y0378485D01*
X0096234Y0378561D01*
X0096377Y0378634D01*
X0096522Y0378703D01*
X0096669Y0378769D01*
X0096817Y0378831D01*
X0096967Y0378889D01*
X0097118Y0378944D01*
X0097271Y0378995D01*
X0097425Y0379042D01*
X0097580Y0379085D01*
X0097736Y0379124D01*
X0097892Y0379160D01*
X0098050Y0379191D01*
X0098208Y0379219D01*
X0098367Y0379243D01*
X0098527Y0379263D01*
X0098687Y0379279D01*
X0098847Y0379291D01*
X0099008Y0379299D01*
X0099169Y0379303D01*
X0099329Y0379303D01*
X0099490Y0379299D01*
X0099651Y0379291D01*
X0099811Y0379279D01*
X0099971Y0379263D01*
X0100131Y0379243D01*
X0100290Y0379219D01*
X0100448Y0379191D01*
X0100606Y0379160D01*
X0100762Y0379124D01*
X0100918Y0379085D01*
X0101073Y0379042D01*
X0101227Y0378995D01*
X0101380Y0378944D01*
X0101531Y0378889D01*
X0101681Y0378831D01*
X0101829Y0378769D01*
X0101976Y0378703D01*
X0102121Y0378634D01*
X0102264Y0378561D01*
X0102406Y0378485D01*
X0102545Y0378405D01*
X0102683Y0378322D01*
X0102818Y0378235D01*
X0102952Y0378145D01*
X0103083Y0378052D01*
X0103211Y0377956D01*
X0103337Y0377856D01*
X0103461Y0377753D01*
X0103582Y0377648D01*
X0103701Y0377539D01*
X0103817Y0377428D01*
X0103930Y0377313D01*
X0104040Y0377196D01*
X0104147Y0377076D01*
X0104251Y0376954D01*
X0104352Y0376829D01*
X0104450Y0376701D01*
X0104545Y0376571D01*
X0104637Y0376439D01*
X0104725Y0376305D01*
X0104810Y0376168D01*
X0104892Y0376030D01*
X0104970Y0375889D01*
X0105044Y0375747D01*
X0105115Y0375603D01*
X0105183Y0375457D01*
X0105246Y0375309D01*
X0105307Y0375160D01*
X0105363Y0375009D01*
X0105416Y0374857D01*
X0105465Y0374704D01*
X0105510Y0374550D01*
X0105551Y0374395D01*
X0105589Y0374238D01*
X0105622Y0374081D01*
X0105652Y0373923D01*
X0105678Y0373764D01*
X0105699Y0373605D01*
X0105717Y0373445D01*
X0105731Y0373285D01*
X0105741Y0373124D01*
X0105747Y0372964D01*
X0105749Y0372803D01*
X0105747Y0372642D01*
X0105741Y0372482D01*
X0105731Y0372321D01*
X0105717Y0372161D01*
X0105699Y0372001D01*
X0105678Y0371842D01*
X0105652Y0371683D01*
X0105622Y0371525D01*
X0105589Y0371368D01*
X0105551Y0371211D01*
X0105510Y0371056D01*
X0105465Y0370902D01*
X0105416Y0370749D01*
X0105363Y0370597D01*
X0105307Y0370446D01*
X0105246Y0370297D01*
X0105183Y0370149D01*
X0105115Y0370003D01*
X0105044Y0369859D01*
X0104970Y0369717D01*
X0104892Y0369576D01*
X0104810Y0369438D01*
X0104725Y0369301D01*
X0104637Y0369167D01*
X0104545Y0369035D01*
X0104450Y0368905D01*
X0104352Y0368777D01*
X0104251Y0368652D01*
X0104147Y0368530D01*
X0104040Y0368410D01*
X0103930Y0368293D01*
X0103817Y0368178D01*
X0103701Y0368067D01*
X0103582Y0367958D01*
X0103461Y0367853D01*
X0103337Y0367750D01*
X0103211Y0367650D01*
X0103083Y0367554D01*
X0102952Y0367461D01*
X0102818Y0367371D01*
X0102683Y0367284D01*
X0102545Y0367201D01*
X0102406Y0367121D01*
X0102264Y0367045D01*
X0102121Y0366972D01*
X0101976Y0366903D01*
X0101829Y0366837D01*
X0101681Y0366775D01*
X0101531Y0366717D01*
X0101380Y0366662D01*
X0101227Y0366611D01*
X0101073Y0366564D01*
X0100918Y0366521D01*
X0100762Y0366482D01*
X0100606Y0366446D01*
X0100448Y0366415D01*
X0100290Y0366387D01*
X0100131Y0366363D01*
X0099971Y0366343D01*
X0099811Y0366327D01*
X0099651Y0366315D01*
X0099490Y0366307D01*
X0099329Y0366303D01*
X0099169Y0366303D01*
X0099008Y0366307D01*
X0098847Y0366315D01*
X0098687Y0366327D01*
X0098527Y0366343D01*
X0098367Y0366363D01*
X0098208Y0366387D01*
X0098050Y0366415D01*
X0097892Y0366446D01*
X0097736Y0366482D01*
X0097580Y0366521D01*
X0097425Y0366564D01*
X0097271Y0366611D01*
X0097118Y0366662D01*
X0096967Y0366717D01*
X0096817Y0366775D01*
X0096669Y0366837D01*
X0096522Y0366903D01*
X0096377Y0366972D01*
X0096234Y0367045D01*
X0096092Y0367121D01*
X0095953Y0367201D01*
X0095815Y0367284D01*
X0095680Y0367371D01*
X0095546Y0367461D01*
X0095415Y0367554D01*
X0095287Y0367650D01*
X0095161Y0367750D01*
X0095037Y0367853D01*
X0094916Y0367958D01*
X0094797Y0368067D01*
X0094681Y0368178D01*
X0094568Y0368293D01*
X0094458Y0368410D01*
X0094351Y0368530D01*
X0094247Y0368652D01*
X0094146Y0368777D01*
X0094048Y0368905D01*
X0093953Y0369035D01*
X0093861Y0369167D01*
X0093773Y0369301D01*
X0093688Y0369438D01*
X0093606Y0369576D01*
X0093528Y0369717D01*
X0093454Y0369859D01*
X0093383Y0370003D01*
X0093315Y0370149D01*
X0093252Y0370297D01*
X0093191Y0370446D01*
X0093135Y0370597D01*
X0093082Y0370749D01*
X0093033Y0370902D01*
X0092988Y0371056D01*
X0092947Y0371211D01*
X0092909Y0371368D01*
X0092876Y0371525D01*
X0092846Y0371683D01*
X0092820Y0371842D01*
X0092799Y0372001D01*
X0092781Y0372161D01*
X0092767Y0372321D01*
X0092757Y0372482D01*
X0092751Y0372642D01*
X0092749Y0372803D01*
X0182749Y0372803D02*
X0182751Y0372964D01*
X0182757Y0373124D01*
X0182767Y0373285D01*
X0182781Y0373445D01*
X0182799Y0373605D01*
X0182820Y0373764D01*
X0182846Y0373923D01*
X0182876Y0374081D01*
X0182909Y0374238D01*
X0182947Y0374395D01*
X0182988Y0374550D01*
X0183033Y0374704D01*
X0183082Y0374857D01*
X0183135Y0375009D01*
X0183191Y0375160D01*
X0183252Y0375309D01*
X0183315Y0375457D01*
X0183383Y0375603D01*
X0183454Y0375747D01*
X0183528Y0375889D01*
X0183606Y0376030D01*
X0183688Y0376168D01*
X0183773Y0376305D01*
X0183861Y0376439D01*
X0183953Y0376571D01*
X0184048Y0376701D01*
X0184146Y0376829D01*
X0184247Y0376954D01*
X0184351Y0377076D01*
X0184458Y0377196D01*
X0184568Y0377313D01*
X0184681Y0377428D01*
X0184797Y0377539D01*
X0184916Y0377648D01*
X0185037Y0377753D01*
X0185161Y0377856D01*
X0185287Y0377956D01*
X0185415Y0378052D01*
X0185546Y0378145D01*
X0185680Y0378235D01*
X0185815Y0378322D01*
X0185953Y0378405D01*
X0186092Y0378485D01*
X0186234Y0378561D01*
X0186377Y0378634D01*
X0186522Y0378703D01*
X0186669Y0378769D01*
X0186817Y0378831D01*
X0186967Y0378889D01*
X0187118Y0378944D01*
X0187271Y0378995D01*
X0187425Y0379042D01*
X0187580Y0379085D01*
X0187736Y0379124D01*
X0187892Y0379160D01*
X0188050Y0379191D01*
X0188208Y0379219D01*
X0188367Y0379243D01*
X0188527Y0379263D01*
X0188687Y0379279D01*
X0188847Y0379291D01*
X0189008Y0379299D01*
X0189169Y0379303D01*
X0189329Y0379303D01*
X0189490Y0379299D01*
X0189651Y0379291D01*
X0189811Y0379279D01*
X0189971Y0379263D01*
X0190131Y0379243D01*
X0190290Y0379219D01*
X0190448Y0379191D01*
X0190606Y0379160D01*
X0190762Y0379124D01*
X0190918Y0379085D01*
X0191073Y0379042D01*
X0191227Y0378995D01*
X0191380Y0378944D01*
X0191531Y0378889D01*
X0191681Y0378831D01*
X0191829Y0378769D01*
X0191976Y0378703D01*
X0192121Y0378634D01*
X0192264Y0378561D01*
X0192406Y0378485D01*
X0192545Y0378405D01*
X0192683Y0378322D01*
X0192818Y0378235D01*
X0192952Y0378145D01*
X0193083Y0378052D01*
X0193211Y0377956D01*
X0193337Y0377856D01*
X0193461Y0377753D01*
X0193582Y0377648D01*
X0193701Y0377539D01*
X0193817Y0377428D01*
X0193930Y0377313D01*
X0194040Y0377196D01*
X0194147Y0377076D01*
X0194251Y0376954D01*
X0194352Y0376829D01*
X0194450Y0376701D01*
X0194545Y0376571D01*
X0194637Y0376439D01*
X0194725Y0376305D01*
X0194810Y0376168D01*
X0194892Y0376030D01*
X0194970Y0375889D01*
X0195044Y0375747D01*
X0195115Y0375603D01*
X0195183Y0375457D01*
X0195246Y0375309D01*
X0195307Y0375160D01*
X0195363Y0375009D01*
X0195416Y0374857D01*
X0195465Y0374704D01*
X0195510Y0374550D01*
X0195551Y0374395D01*
X0195589Y0374238D01*
X0195622Y0374081D01*
X0195652Y0373923D01*
X0195678Y0373764D01*
X0195699Y0373605D01*
X0195717Y0373445D01*
X0195731Y0373285D01*
X0195741Y0373124D01*
X0195747Y0372964D01*
X0195749Y0372803D01*
X0195747Y0372642D01*
X0195741Y0372482D01*
X0195731Y0372321D01*
X0195717Y0372161D01*
X0195699Y0372001D01*
X0195678Y0371842D01*
X0195652Y0371683D01*
X0195622Y0371525D01*
X0195589Y0371368D01*
X0195551Y0371211D01*
X0195510Y0371056D01*
X0195465Y0370902D01*
X0195416Y0370749D01*
X0195363Y0370597D01*
X0195307Y0370446D01*
X0195246Y0370297D01*
X0195183Y0370149D01*
X0195115Y0370003D01*
X0195044Y0369859D01*
X0194970Y0369717D01*
X0194892Y0369576D01*
X0194810Y0369438D01*
X0194725Y0369301D01*
X0194637Y0369167D01*
X0194545Y0369035D01*
X0194450Y0368905D01*
X0194352Y0368777D01*
X0194251Y0368652D01*
X0194147Y0368530D01*
X0194040Y0368410D01*
X0193930Y0368293D01*
X0193817Y0368178D01*
X0193701Y0368067D01*
X0193582Y0367958D01*
X0193461Y0367853D01*
X0193337Y0367750D01*
X0193211Y0367650D01*
X0193083Y0367554D01*
X0192952Y0367461D01*
X0192818Y0367371D01*
X0192683Y0367284D01*
X0192545Y0367201D01*
X0192406Y0367121D01*
X0192264Y0367045D01*
X0192121Y0366972D01*
X0191976Y0366903D01*
X0191829Y0366837D01*
X0191681Y0366775D01*
X0191531Y0366717D01*
X0191380Y0366662D01*
X0191227Y0366611D01*
X0191073Y0366564D01*
X0190918Y0366521D01*
X0190762Y0366482D01*
X0190606Y0366446D01*
X0190448Y0366415D01*
X0190290Y0366387D01*
X0190131Y0366363D01*
X0189971Y0366343D01*
X0189811Y0366327D01*
X0189651Y0366315D01*
X0189490Y0366307D01*
X0189329Y0366303D01*
X0189169Y0366303D01*
X0189008Y0366307D01*
X0188847Y0366315D01*
X0188687Y0366327D01*
X0188527Y0366343D01*
X0188367Y0366363D01*
X0188208Y0366387D01*
X0188050Y0366415D01*
X0187892Y0366446D01*
X0187736Y0366482D01*
X0187580Y0366521D01*
X0187425Y0366564D01*
X0187271Y0366611D01*
X0187118Y0366662D01*
X0186967Y0366717D01*
X0186817Y0366775D01*
X0186669Y0366837D01*
X0186522Y0366903D01*
X0186377Y0366972D01*
X0186234Y0367045D01*
X0186092Y0367121D01*
X0185953Y0367201D01*
X0185815Y0367284D01*
X0185680Y0367371D01*
X0185546Y0367461D01*
X0185415Y0367554D01*
X0185287Y0367650D01*
X0185161Y0367750D01*
X0185037Y0367853D01*
X0184916Y0367958D01*
X0184797Y0368067D01*
X0184681Y0368178D01*
X0184568Y0368293D01*
X0184458Y0368410D01*
X0184351Y0368530D01*
X0184247Y0368652D01*
X0184146Y0368777D01*
X0184048Y0368905D01*
X0183953Y0369035D01*
X0183861Y0369167D01*
X0183773Y0369301D01*
X0183688Y0369438D01*
X0183606Y0369576D01*
X0183528Y0369717D01*
X0183454Y0369859D01*
X0183383Y0370003D01*
X0183315Y0370149D01*
X0183252Y0370297D01*
X0183191Y0370446D01*
X0183135Y0370597D01*
X0183082Y0370749D01*
X0183033Y0370902D01*
X0182988Y0371056D01*
X0182947Y0371211D01*
X0182909Y0371368D01*
X0182876Y0371525D01*
X0182846Y0371683D01*
X0182820Y0371842D01*
X0182799Y0372001D01*
X0182781Y0372161D01*
X0182767Y0372321D01*
X0182757Y0372482D01*
X0182751Y0372642D01*
X0182749Y0372803D01*
X0185083Y0287547D02*
X0185085Y0287635D01*
X0185091Y0287723D01*
X0185101Y0287811D01*
X0185115Y0287899D01*
X0185132Y0287985D01*
X0185154Y0288071D01*
X0185179Y0288155D01*
X0185209Y0288239D01*
X0185241Y0288321D01*
X0185278Y0288401D01*
X0185318Y0288480D01*
X0185362Y0288557D01*
X0185409Y0288632D01*
X0185459Y0288704D01*
X0185513Y0288775D01*
X0185569Y0288842D01*
X0185629Y0288908D01*
X0185691Y0288970D01*
X0185757Y0289030D01*
X0185824Y0289086D01*
X0185895Y0289140D01*
X0185967Y0289190D01*
X0186042Y0289237D01*
X0186119Y0289281D01*
X0186198Y0289321D01*
X0186278Y0289358D01*
X0186360Y0289390D01*
X0186444Y0289420D01*
X0186528Y0289445D01*
X0186614Y0289467D01*
X0186700Y0289484D01*
X0186788Y0289498D01*
X0186876Y0289508D01*
X0186964Y0289514D01*
X0187052Y0289516D01*
X0187140Y0289514D01*
X0187228Y0289508D01*
X0187316Y0289498D01*
X0187404Y0289484D01*
X0187490Y0289467D01*
X0187576Y0289445D01*
X0187660Y0289420D01*
X0187744Y0289390D01*
X0187826Y0289358D01*
X0187906Y0289321D01*
X0187985Y0289281D01*
X0188062Y0289237D01*
X0188137Y0289190D01*
X0188209Y0289140D01*
X0188280Y0289086D01*
X0188347Y0289030D01*
X0188413Y0288970D01*
X0188475Y0288908D01*
X0188535Y0288842D01*
X0188591Y0288775D01*
X0188645Y0288704D01*
X0188695Y0288632D01*
X0188742Y0288557D01*
X0188786Y0288480D01*
X0188826Y0288401D01*
X0188863Y0288321D01*
X0188895Y0288239D01*
X0188925Y0288155D01*
X0188950Y0288071D01*
X0188972Y0287985D01*
X0188989Y0287899D01*
X0189003Y0287811D01*
X0189013Y0287723D01*
X0189019Y0287635D01*
X0189021Y0287547D01*
X0189019Y0287459D01*
X0189013Y0287371D01*
X0189003Y0287283D01*
X0188989Y0287195D01*
X0188972Y0287109D01*
X0188950Y0287023D01*
X0188925Y0286939D01*
X0188895Y0286855D01*
X0188863Y0286773D01*
X0188826Y0286693D01*
X0188786Y0286614D01*
X0188742Y0286537D01*
X0188695Y0286462D01*
X0188645Y0286390D01*
X0188591Y0286319D01*
X0188535Y0286252D01*
X0188475Y0286186D01*
X0188413Y0286124D01*
X0188347Y0286064D01*
X0188280Y0286008D01*
X0188209Y0285954D01*
X0188137Y0285904D01*
X0188062Y0285857D01*
X0187985Y0285813D01*
X0187906Y0285773D01*
X0187826Y0285736D01*
X0187744Y0285704D01*
X0187660Y0285674D01*
X0187576Y0285649D01*
X0187490Y0285627D01*
X0187404Y0285610D01*
X0187316Y0285596D01*
X0187228Y0285586D01*
X0187140Y0285580D01*
X0187052Y0285578D01*
X0186964Y0285580D01*
X0186876Y0285586D01*
X0186788Y0285596D01*
X0186700Y0285610D01*
X0186614Y0285627D01*
X0186528Y0285649D01*
X0186444Y0285674D01*
X0186360Y0285704D01*
X0186278Y0285736D01*
X0186198Y0285773D01*
X0186119Y0285813D01*
X0186042Y0285857D01*
X0185967Y0285904D01*
X0185895Y0285954D01*
X0185824Y0286008D01*
X0185757Y0286064D01*
X0185691Y0286124D01*
X0185629Y0286186D01*
X0185569Y0286252D01*
X0185513Y0286319D01*
X0185459Y0286390D01*
X0185409Y0286462D01*
X0185362Y0286537D01*
X0185318Y0286614D01*
X0185278Y0286693D01*
X0185241Y0286773D01*
X0185209Y0286855D01*
X0185179Y0286939D01*
X0185154Y0287023D01*
X0185132Y0287109D01*
X0185115Y0287195D01*
X0185101Y0287283D01*
X0185091Y0287371D01*
X0185085Y0287459D01*
X0185083Y0287547D01*
D11*
X0178142Y0198236D02*
X0178142Y0191831D01*
X0174939Y0191831D01*
X0173872Y0192898D01*
X0173872Y0195034D01*
X0174939Y0196101D01*
X0178142Y0196101D01*
X0180317Y0195034D02*
X0180317Y0191831D01*
X0183520Y0191831D01*
X0184587Y0192898D01*
X0183520Y0193966D01*
X0180317Y0193966D01*
X0180317Y0195034D02*
X0181385Y0196101D01*
X0183520Y0196101D01*
X0186756Y0196101D02*
X0187823Y0196101D01*
X0189959Y0193966D01*
X0189959Y0191831D02*
X0189959Y0196101D01*
X0192134Y0195034D02*
X0192134Y0191831D01*
X0195337Y0191831D01*
X0196404Y0192898D01*
X0195337Y0193966D01*
X0192134Y0193966D01*
X0192134Y0195034D02*
X0193201Y0196101D01*
X0195337Y0196101D01*
X0198579Y0195034D02*
X0198579Y0193966D01*
X0202850Y0193966D01*
X0202850Y0192898D02*
X0202850Y0195034D01*
X0201782Y0196101D01*
X0199647Y0196101D01*
X0198579Y0195034D01*
X0199647Y0191831D02*
X0201782Y0191831D01*
X0202850Y0192898D01*
X0205025Y0191831D02*
X0205025Y0198236D01*
X0207160Y0193966D02*
X0205025Y0191831D01*
X0207160Y0193966D02*
X0209295Y0191831D01*
X0209295Y0198236D01*
X0209295Y0187736D02*
X0205025Y0181331D01*
X0205025Y0187736D01*
X0201782Y0185601D02*
X0199647Y0185601D01*
X0198579Y0184534D01*
X0198579Y0181331D01*
X0201782Y0181331D01*
X0202850Y0182398D01*
X0201782Y0183466D01*
X0198579Y0183466D01*
X0196404Y0182398D02*
X0195337Y0181331D01*
X0193201Y0181331D01*
X0192134Y0182398D01*
X0192134Y0184534D01*
X0193201Y0185601D01*
X0195337Y0185601D01*
X0196404Y0184534D01*
X0196404Y0182398D01*
X0196404Y0175101D02*
X0193201Y0175101D01*
X0192134Y0174034D01*
X0192134Y0170831D01*
X0189959Y0171898D02*
X0189959Y0174034D01*
X0188891Y0175101D01*
X0185688Y0175101D01*
X0185688Y0169763D01*
X0186756Y0168696D01*
X0187823Y0168696D01*
X0188891Y0170831D02*
X0185688Y0170831D01*
X0183513Y0171898D02*
X0183513Y0174034D01*
X0182446Y0175101D01*
X0179243Y0175101D01*
X0179243Y0168696D01*
X0179243Y0170831D02*
X0182446Y0170831D01*
X0183513Y0171898D01*
X0181378Y0166736D02*
X0181378Y0160331D01*
X0183513Y0160331D02*
X0179243Y0160331D01*
X0177068Y0160331D02*
X0177068Y0161398D01*
X0172797Y0165669D01*
X0172797Y0166736D01*
X0177068Y0166736D01*
X0177068Y0170831D02*
X0174933Y0170831D01*
X0176000Y0170831D02*
X0176000Y0175101D01*
X0177068Y0175101D01*
X0176000Y0177236D02*
X0176000Y0178304D01*
X0172771Y0182398D02*
X0171703Y0181331D01*
X0170636Y0181331D01*
X0169568Y0182398D01*
X0169568Y0187736D01*
X0170636Y0187736D02*
X0168500Y0187736D01*
X0169561Y0191831D02*
X0171696Y0191831D01*
X0170629Y0191831D02*
X0170629Y0198236D01*
X0171696Y0198236D01*
X0167399Y0195034D02*
X0167399Y0192898D01*
X0166332Y0191831D01*
X0164197Y0191831D01*
X0163129Y0193966D02*
X0163129Y0195034D01*
X0164197Y0196101D01*
X0166332Y0196101D01*
X0167399Y0195034D01*
X0167399Y0193966D02*
X0163129Y0193966D01*
X0163122Y0185601D02*
X0162055Y0184534D01*
X0162055Y0181331D01*
X0165258Y0181331D01*
X0166325Y0182398D01*
X0165258Y0183466D01*
X0162055Y0183466D01*
X0163122Y0185601D02*
X0165258Y0185601D01*
X0159880Y0185601D02*
X0157745Y0181331D01*
X0155609Y0185601D01*
X0153434Y0185601D02*
X0152367Y0185601D01*
X0152367Y0181331D01*
X0153434Y0181331D02*
X0151299Y0181331D01*
X0148070Y0182398D02*
X0147002Y0181331D01*
X0148070Y0182398D02*
X0148070Y0186669D01*
X0149137Y0185601D02*
X0147002Y0185601D01*
X0144840Y0185601D02*
X0142705Y0185601D01*
X0143773Y0186669D02*
X0143773Y0182398D01*
X0142705Y0181331D01*
X0143786Y0175101D02*
X0142718Y0174034D01*
X0142718Y0170831D01*
X0146989Y0170831D02*
X0146989Y0175101D01*
X0143786Y0175101D01*
X0149164Y0174034D02*
X0149164Y0172966D01*
X0153434Y0172966D01*
X0153434Y0171898D02*
X0153434Y0174034D01*
X0152367Y0175101D01*
X0150231Y0175101D01*
X0149164Y0174034D01*
X0150231Y0170831D02*
X0152367Y0170831D01*
X0153434Y0171898D01*
X0155609Y0170831D02*
X0155609Y0174034D01*
X0156677Y0175101D01*
X0158812Y0175101D01*
X0159880Y0174034D01*
X0162055Y0176169D02*
X0163122Y0177236D01*
X0165258Y0177236D01*
X0166325Y0176169D01*
X0166325Y0171898D01*
X0165258Y0170831D01*
X0163122Y0170831D01*
X0162055Y0171898D01*
X0159880Y0170831D02*
X0159880Y0177236D01*
X0152367Y0187736D02*
X0152367Y0188804D01*
X0150238Y0191831D02*
X0152373Y0193966D01*
X0151306Y0193966D02*
X0150238Y0195034D01*
X0150238Y0197169D01*
X0151306Y0198236D01*
X0154508Y0198236D01*
X0154508Y0191831D01*
X0154508Y0193966D02*
X0151306Y0193966D01*
X0148063Y0195034D02*
X0148063Y0192898D01*
X0146995Y0191831D01*
X0144860Y0191831D01*
X0143793Y0192898D01*
X0143793Y0195034D01*
X0144860Y0196101D01*
X0146995Y0196101D01*
X0148063Y0195034D01*
X0141617Y0196101D02*
X0138415Y0196101D01*
X0137347Y0195034D01*
X0137347Y0192898D01*
X0138415Y0191831D01*
X0141617Y0191831D01*
X0141617Y0198236D01*
X0135172Y0195034D02*
X0135172Y0192898D01*
X0134104Y0191831D01*
X0131969Y0191831D01*
X0130902Y0192898D01*
X0130902Y0195034D01*
X0131969Y0196101D01*
X0134104Y0196101D01*
X0135172Y0195034D01*
X0128726Y0196101D02*
X0126591Y0196101D01*
X0127659Y0197169D02*
X0127659Y0192898D01*
X0126591Y0191831D01*
X0124429Y0191831D02*
X0122294Y0191831D01*
X0123362Y0191831D02*
X0123362Y0196101D01*
X0124429Y0196101D01*
X0123362Y0198236D02*
X0123362Y0199304D01*
X0120132Y0195034D02*
X0120132Y0192898D01*
X0119065Y0191831D01*
X0115862Y0191831D01*
X0115862Y0196101D02*
X0119065Y0196101D01*
X0120132Y0195034D01*
X0107241Y0196101D02*
X0106174Y0195034D01*
X0104039Y0195034D01*
X0102971Y0193966D01*
X0102971Y0192898D01*
X0104039Y0191831D01*
X0106174Y0191831D01*
X0107241Y0192898D01*
X0107241Y0196101D02*
X0107241Y0197169D01*
X0106174Y0198236D01*
X0104039Y0198236D01*
X0102971Y0197169D01*
X0100796Y0196101D02*
X0100796Y0192898D01*
X0099728Y0191831D01*
X0096526Y0191831D01*
X0096526Y0190763D02*
X0097593Y0189696D01*
X0098661Y0189696D01*
X0096526Y0190763D02*
X0096526Y0196101D01*
X0094350Y0195034D02*
X0093283Y0196101D01*
X0090080Y0196101D01*
X0087905Y0196101D02*
X0085770Y0196101D01*
X0086837Y0197169D02*
X0086837Y0192898D01*
X0085770Y0191831D01*
X0083608Y0192898D02*
X0083608Y0195034D01*
X0082540Y0196101D01*
X0080405Y0196101D01*
X0079338Y0195034D01*
X0079338Y0193966D01*
X0083608Y0193966D01*
X0083608Y0192898D02*
X0082540Y0191831D01*
X0080405Y0191831D01*
X0077162Y0191831D02*
X0077162Y0196101D01*
X0076095Y0196101D01*
X0075027Y0195034D01*
X0073960Y0196101D01*
X0072892Y0195034D01*
X0072892Y0191831D01*
X0075027Y0191831D02*
X0075027Y0195034D01*
X0064271Y0198236D02*
X0064271Y0191831D01*
X0060001Y0191831D01*
X0057826Y0192898D02*
X0056758Y0193966D01*
X0053556Y0193966D01*
X0053556Y0195034D02*
X0053556Y0191831D01*
X0056758Y0191831D01*
X0057826Y0192898D01*
X0056758Y0196101D02*
X0054623Y0196101D01*
X0053556Y0195034D01*
X0051380Y0196101D02*
X0048178Y0196101D01*
X0047110Y0195034D01*
X0047110Y0192898D01*
X0048178Y0191831D01*
X0051380Y0191831D01*
X0051380Y0198236D01*
X0090080Y0192898D02*
X0091148Y0193966D01*
X0093283Y0193966D01*
X0094350Y0195034D01*
X0094350Y0191831D02*
X0091148Y0191831D01*
X0090080Y0192898D01*
X0181378Y0181331D02*
X0183513Y0181331D01*
X0182446Y0181331D02*
X0182446Y0185601D01*
X0183513Y0185601D01*
X0182446Y0187736D02*
X0182446Y0188804D01*
X0185688Y0184534D02*
X0185688Y0181331D01*
X0187823Y0181331D02*
X0187823Y0184534D01*
X0186756Y0185601D01*
X0185688Y0184534D01*
X0187823Y0184534D02*
X0188891Y0185601D01*
X0189959Y0185601D01*
X0189959Y0181331D01*
X0189959Y0171898D02*
X0188891Y0170831D01*
X0185688Y0166736D02*
X0189959Y0160331D01*
X0192134Y0165669D02*
X0196404Y0161398D01*
X0196404Y0160331D01*
X0196404Y0166736D02*
X0192134Y0166736D01*
X0192134Y0165669D01*
X0198579Y0166736D02*
X0202850Y0160331D01*
X0205025Y0165669D02*
X0209295Y0161398D01*
X0209295Y0160331D01*
X0209295Y0166736D02*
X0205025Y0166736D01*
X0205025Y0165669D01*
X0207160Y0170831D02*
X0207160Y0174034D01*
X0205025Y0176169D01*
X0205025Y0177236D01*
X0207160Y0174034D02*
X0209295Y0176169D01*
X0209295Y0177236D01*
X0209295Y0181331D02*
X0209295Y0187736D01*
X0201782Y0175101D02*
X0202850Y0174034D01*
X0202850Y0171898D01*
X0201782Y0170831D01*
X0199647Y0170831D01*
X0198579Y0171898D01*
X0198579Y0174034D01*
X0199647Y0175101D01*
X0201782Y0175101D01*
X0196404Y0175101D02*
X0196404Y0170831D01*
X0183513Y0164601D02*
X0181378Y0166736D01*
X0074784Y0361531D02*
X0067784Y0361531D01*
X0067724Y0361533D01*
X0067663Y0361538D01*
X0067604Y0361547D01*
X0067545Y0361560D01*
X0067486Y0361576D01*
X0067429Y0361596D01*
X0067374Y0361619D01*
X0067319Y0361646D01*
X0067267Y0361675D01*
X0067216Y0361708D01*
X0067167Y0361744D01*
X0067121Y0361782D01*
X0067077Y0361824D01*
X0067035Y0361868D01*
X0066997Y0361914D01*
X0066961Y0361963D01*
X0066928Y0362014D01*
X0066899Y0362066D01*
X0066872Y0362121D01*
X0066849Y0362176D01*
X0066829Y0362233D01*
X0066813Y0362292D01*
X0066800Y0362351D01*
X0066791Y0362410D01*
X0066786Y0362471D01*
X0066784Y0362531D01*
X0066784Y0364031D01*
X0067284Y0364531D01*
X0067284Y0383531D01*
X0066784Y0384031D01*
X0066784Y0385531D01*
X0066786Y0385591D01*
X0066791Y0385652D01*
X0066800Y0385711D01*
X0066813Y0385770D01*
X0066829Y0385829D01*
X0066849Y0385886D01*
X0066872Y0385941D01*
X0066899Y0385996D01*
X0066928Y0386048D01*
X0066961Y0386099D01*
X0066997Y0386148D01*
X0067035Y0386194D01*
X0067077Y0386238D01*
X0067121Y0386280D01*
X0067167Y0386318D01*
X0067216Y0386354D01*
X0067267Y0386387D01*
X0067319Y0386416D01*
X0067374Y0386443D01*
X0067429Y0386466D01*
X0067486Y0386486D01*
X0067545Y0386502D01*
X0067604Y0386515D01*
X0067663Y0386524D01*
X0067724Y0386529D01*
X0067784Y0386531D01*
X0074784Y0386531D01*
X0074844Y0386529D01*
X0074905Y0386524D01*
X0074964Y0386515D01*
X0075023Y0386502D01*
X0075082Y0386486D01*
X0075139Y0386466D01*
X0075194Y0386443D01*
X0075249Y0386416D01*
X0075301Y0386387D01*
X0075352Y0386354D01*
X0075401Y0386318D01*
X0075447Y0386280D01*
X0075491Y0386238D01*
X0075533Y0386194D01*
X0075571Y0386148D01*
X0075607Y0386099D01*
X0075640Y0386048D01*
X0075669Y0385996D01*
X0075696Y0385941D01*
X0075719Y0385886D01*
X0075739Y0385829D01*
X0075755Y0385770D01*
X0075768Y0385711D01*
X0075777Y0385652D01*
X0075782Y0385591D01*
X0075784Y0385531D01*
X0075784Y0384031D01*
X0075284Y0383531D01*
X0075284Y0364531D01*
X0075784Y0364031D01*
X0075784Y0362531D01*
X0075782Y0362471D01*
X0075777Y0362410D01*
X0075768Y0362351D01*
X0075755Y0362292D01*
X0075739Y0362233D01*
X0075719Y0362176D01*
X0075696Y0362121D01*
X0075669Y0362066D01*
X0075640Y0362014D01*
X0075607Y0361963D01*
X0075571Y0361914D01*
X0075533Y0361868D01*
X0075491Y0361824D01*
X0075447Y0361782D01*
X0075401Y0361744D01*
X0075352Y0361708D01*
X0075301Y0361675D01*
X0075249Y0361646D01*
X0075194Y0361619D01*
X0075139Y0361596D01*
X0075082Y0361576D01*
X0075023Y0361560D01*
X0074964Y0361547D01*
X0074905Y0361538D01*
X0074844Y0361533D01*
X0074784Y0361531D01*
X0088599Y0385968D02*
X0090099Y0385968D01*
X0090599Y0386468D01*
X0109599Y0386468D01*
X0110099Y0385968D01*
X0111599Y0385968D01*
X0111659Y0385970D01*
X0111720Y0385975D01*
X0111779Y0385984D01*
X0111838Y0385997D01*
X0111897Y0386013D01*
X0111954Y0386033D01*
X0112009Y0386056D01*
X0112064Y0386083D01*
X0112116Y0386112D01*
X0112167Y0386145D01*
X0112216Y0386181D01*
X0112262Y0386219D01*
X0112306Y0386261D01*
X0112348Y0386305D01*
X0112386Y0386351D01*
X0112422Y0386400D01*
X0112455Y0386451D01*
X0112484Y0386503D01*
X0112511Y0386558D01*
X0112534Y0386613D01*
X0112554Y0386670D01*
X0112570Y0386729D01*
X0112583Y0386788D01*
X0112592Y0386847D01*
X0112597Y0386908D01*
X0112599Y0386968D01*
X0112599Y0393968D01*
X0112597Y0394028D01*
X0112592Y0394089D01*
X0112583Y0394148D01*
X0112570Y0394207D01*
X0112554Y0394266D01*
X0112534Y0394323D01*
X0112511Y0394378D01*
X0112484Y0394433D01*
X0112455Y0394485D01*
X0112422Y0394536D01*
X0112386Y0394585D01*
X0112348Y0394631D01*
X0112306Y0394675D01*
X0112262Y0394717D01*
X0112216Y0394755D01*
X0112167Y0394791D01*
X0112116Y0394824D01*
X0112064Y0394853D01*
X0112009Y0394880D01*
X0111954Y0394903D01*
X0111897Y0394923D01*
X0111838Y0394939D01*
X0111779Y0394952D01*
X0111720Y0394961D01*
X0111659Y0394966D01*
X0111599Y0394968D01*
X0110099Y0394968D01*
X0109599Y0394468D01*
X0090599Y0394468D01*
X0090099Y0394968D01*
X0088599Y0394968D01*
X0088539Y0394966D01*
X0088478Y0394961D01*
X0088419Y0394952D01*
X0088360Y0394939D01*
X0088301Y0394923D01*
X0088244Y0394903D01*
X0088189Y0394880D01*
X0088134Y0394853D01*
X0088082Y0394824D01*
X0088031Y0394791D01*
X0087982Y0394755D01*
X0087936Y0394717D01*
X0087892Y0394675D01*
X0087850Y0394631D01*
X0087812Y0394585D01*
X0087776Y0394536D01*
X0087743Y0394485D01*
X0087714Y0394433D01*
X0087687Y0394378D01*
X0087664Y0394323D01*
X0087644Y0394266D01*
X0087628Y0394207D01*
X0087615Y0394148D01*
X0087606Y0394089D01*
X0087601Y0394028D01*
X0087599Y0393968D01*
X0087599Y0386968D01*
X0087601Y0386908D01*
X0087606Y0386847D01*
X0087615Y0386788D01*
X0087628Y0386729D01*
X0087644Y0386670D01*
X0087664Y0386613D01*
X0087687Y0386558D01*
X0087714Y0386503D01*
X0087743Y0386451D01*
X0087776Y0386400D01*
X0087812Y0386351D01*
X0087850Y0386305D01*
X0087892Y0386261D01*
X0087936Y0386219D01*
X0087982Y0386181D01*
X0088031Y0386145D01*
X0088082Y0386112D01*
X0088134Y0386083D01*
X0088189Y0386056D01*
X0088244Y0386033D01*
X0088301Y0386013D01*
X0088360Y0385997D01*
X0088419Y0385984D01*
X0088478Y0385975D01*
X0088539Y0385970D01*
X0088599Y0385968D01*
X0178717Y0391594D02*
X0178717Y0398594D01*
X0178719Y0398654D01*
X0178724Y0398715D01*
X0178733Y0398774D01*
X0178746Y0398833D01*
X0178762Y0398892D01*
X0178782Y0398949D01*
X0178805Y0399004D01*
X0178832Y0399059D01*
X0178861Y0399111D01*
X0178894Y0399162D01*
X0178930Y0399211D01*
X0178968Y0399257D01*
X0179010Y0399301D01*
X0179054Y0399343D01*
X0179100Y0399381D01*
X0179149Y0399417D01*
X0179200Y0399450D01*
X0179252Y0399479D01*
X0179307Y0399506D01*
X0179362Y0399529D01*
X0179419Y0399549D01*
X0179478Y0399565D01*
X0179537Y0399578D01*
X0179596Y0399587D01*
X0179657Y0399592D01*
X0179717Y0399594D01*
X0181217Y0399594D01*
X0181717Y0399094D01*
X0200717Y0399094D01*
X0201217Y0399594D01*
X0202717Y0399594D01*
X0202777Y0399592D01*
X0202838Y0399587D01*
X0202897Y0399578D01*
X0202956Y0399565D01*
X0203015Y0399549D01*
X0203072Y0399529D01*
X0203127Y0399506D01*
X0203182Y0399479D01*
X0203234Y0399450D01*
X0203285Y0399417D01*
X0203334Y0399381D01*
X0203380Y0399343D01*
X0203424Y0399301D01*
X0203466Y0399257D01*
X0203504Y0399211D01*
X0203540Y0399162D01*
X0203573Y0399111D01*
X0203602Y0399059D01*
X0203629Y0399004D01*
X0203652Y0398949D01*
X0203672Y0398892D01*
X0203688Y0398833D01*
X0203701Y0398774D01*
X0203710Y0398715D01*
X0203715Y0398654D01*
X0203717Y0398594D01*
X0203717Y0391594D01*
X0203715Y0391534D01*
X0203710Y0391473D01*
X0203701Y0391414D01*
X0203688Y0391355D01*
X0203672Y0391296D01*
X0203652Y0391239D01*
X0203629Y0391184D01*
X0203602Y0391129D01*
X0203573Y0391077D01*
X0203540Y0391026D01*
X0203504Y0390977D01*
X0203466Y0390931D01*
X0203424Y0390887D01*
X0203380Y0390845D01*
X0203334Y0390807D01*
X0203285Y0390771D01*
X0203234Y0390738D01*
X0203182Y0390709D01*
X0203127Y0390682D01*
X0203072Y0390659D01*
X0203015Y0390639D01*
X0202956Y0390623D01*
X0202897Y0390610D01*
X0202838Y0390601D01*
X0202777Y0390596D01*
X0202717Y0390594D01*
X0201217Y0390594D01*
X0200717Y0391094D01*
X0181717Y0391094D01*
X0181217Y0390594D01*
X0179717Y0390594D01*
X0179657Y0390596D01*
X0179596Y0390601D01*
X0179537Y0390610D01*
X0179478Y0390623D01*
X0179419Y0390639D01*
X0179362Y0390659D01*
X0179307Y0390682D01*
X0179252Y0390709D01*
X0179200Y0390738D01*
X0179149Y0390771D01*
X0179100Y0390807D01*
X0179054Y0390845D01*
X0179010Y0390887D01*
X0178968Y0390931D01*
X0178930Y0390977D01*
X0178894Y0391026D01*
X0178861Y0391077D01*
X0178832Y0391129D01*
X0178805Y0391184D01*
X0178782Y0391239D01*
X0178762Y0391296D01*
X0178746Y0391355D01*
X0178733Y0391414D01*
X0178724Y0391473D01*
X0178719Y0391534D01*
X0178717Y0391594D01*
D12*
X0157646Y0285314D02*
X0136646Y0285314D01*
X0136646Y0275314D01*
X0157646Y0275314D01*
X0157646Y0285314D01*
X0147146Y0282814D02*
X0147146Y0277814D01*
X0202552Y0275121D02*
X0202552Y0285121D01*
X0223552Y0285121D01*
X0223552Y0275121D01*
X0202552Y0275121D01*
X0213052Y0277621D02*
X0213052Y0282621D01*
X0224221Y0274031D02*
X0064221Y0274031D01*
X0064221Y0074031D01*
X0224221Y0074031D01*
X0224221Y0274031D01*
X0131398Y0072578D02*
X0121398Y0072578D01*
X0121398Y0051578D01*
X0131398Y0051578D01*
X0131398Y0072578D01*
X0128898Y0062078D02*
X0123898Y0062078D01*
X0064221Y0084031D02*
X0064221Y0114031D01*
X0064359Y0275157D02*
X0064359Y0285157D01*
X0085359Y0285157D01*
X0085359Y0275157D01*
X0064359Y0275157D01*
X0074859Y0277657D02*
X0074859Y0282657D01*
D13*
X0085899Y0390468D03*
X0114299Y0390468D03*
X0177017Y0395094D03*
X0205417Y0395094D03*
D14*
X0200365Y0388848D02*
X0198863Y0387346D01*
X0197262Y0386596D02*
X0196511Y0385845D01*
X0194259Y0385845D01*
X0194259Y0384344D02*
X0194259Y0388848D01*
X0196511Y0388848D01*
X0197262Y0388097D01*
X0197262Y0386596D01*
X0195761Y0385845D02*
X0197262Y0384344D01*
X0198863Y0384344D02*
X0201866Y0384344D01*
X0200365Y0384344D02*
X0200365Y0388848D01*
X0191871Y0364554D02*
X0191237Y0364237D01*
X0190604Y0363603D01*
X0191554Y0363603D01*
X0191871Y0363286D01*
X0191871Y0362970D01*
X0191554Y0362653D01*
X0190921Y0362653D01*
X0190604Y0362970D01*
X0190604Y0363603D01*
X0189661Y0363286D02*
X0189345Y0363603D01*
X0188711Y0363603D01*
X0188394Y0363920D01*
X0188394Y0364237D01*
X0188711Y0364554D01*
X0189345Y0364554D01*
X0189661Y0364237D01*
X0189028Y0364871D02*
X0189028Y0362336D01*
X0189345Y0362653D02*
X0189661Y0362970D01*
X0189661Y0363286D01*
X0189345Y0362653D02*
X0188711Y0362653D01*
X0188394Y0362970D01*
X0187452Y0362970D02*
X0187452Y0364554D01*
X0186184Y0364554D02*
X0186184Y0362970D01*
X0186501Y0362653D01*
X0187135Y0362653D01*
X0187452Y0362970D01*
X0147682Y0322980D02*
X0147694Y0323946D01*
X0147729Y0324912D01*
X0147789Y0325876D01*
X0147872Y0326839D01*
X0147978Y0327799D01*
X0148108Y0328757D01*
X0148262Y0329711D01*
X0148438Y0330661D01*
X0148639Y0331606D01*
X0148862Y0332546D01*
X0149108Y0333480D01*
X0149377Y0334409D01*
X0149669Y0335330D01*
X0149983Y0336243D01*
X0150320Y0337149D01*
X0150679Y0338046D01*
X0151060Y0338934D01*
X0151462Y0339813D01*
X0151886Y0340681D01*
X0152331Y0341539D01*
X0152797Y0342385D01*
X0153283Y0343220D01*
X0153790Y0344043D01*
X0154317Y0344853D01*
X0154864Y0345650D01*
X0155430Y0346433D01*
X0156015Y0347202D01*
X0156619Y0347956D01*
X0157241Y0348695D01*
X0157881Y0349419D01*
X0158538Y0350127D01*
X0159213Y0350819D01*
X0159905Y0351494D01*
X0160613Y0352151D01*
X0161337Y0352791D01*
X0162076Y0353413D01*
X0162830Y0354017D01*
X0163599Y0354602D01*
X0164382Y0355168D01*
X0165179Y0355715D01*
X0165989Y0356242D01*
X0166812Y0356749D01*
X0167647Y0357235D01*
X0168493Y0357701D01*
X0169351Y0358146D01*
X0170219Y0358570D01*
X0171098Y0358972D01*
X0171986Y0359353D01*
X0172883Y0359712D01*
X0173789Y0360049D01*
X0174702Y0360363D01*
X0175623Y0360655D01*
X0176552Y0360924D01*
X0177486Y0361170D01*
X0178426Y0361393D01*
X0179371Y0361594D01*
X0180321Y0361770D01*
X0181275Y0361924D01*
X0182233Y0362054D01*
X0183193Y0362160D01*
X0184156Y0362243D01*
X0185120Y0362303D01*
X0186086Y0362338D01*
X0187052Y0362350D01*
X0188018Y0362338D01*
X0188984Y0362303D01*
X0189948Y0362243D01*
X0190911Y0362160D01*
X0191871Y0362054D01*
X0192829Y0361924D01*
X0193783Y0361770D01*
X0194733Y0361594D01*
X0195678Y0361393D01*
X0196618Y0361170D01*
X0197552Y0360924D01*
X0198481Y0360655D01*
X0199402Y0360363D01*
X0200315Y0360049D01*
X0201221Y0359712D01*
X0202118Y0359353D01*
X0203006Y0358972D01*
X0203885Y0358570D01*
X0204753Y0358146D01*
X0205611Y0357701D01*
X0206457Y0357235D01*
X0207292Y0356749D01*
X0208115Y0356242D01*
X0208925Y0355715D01*
X0209722Y0355168D01*
X0210505Y0354602D01*
X0211274Y0354017D01*
X0212028Y0353413D01*
X0212767Y0352791D01*
X0213491Y0352151D01*
X0214199Y0351494D01*
X0214891Y0350819D01*
X0215566Y0350127D01*
X0216223Y0349419D01*
X0216863Y0348695D01*
X0217485Y0347956D01*
X0218089Y0347202D01*
X0218674Y0346433D01*
X0219240Y0345650D01*
X0219787Y0344853D01*
X0220314Y0344043D01*
X0220821Y0343220D01*
X0221307Y0342385D01*
X0221773Y0341539D01*
X0222218Y0340681D01*
X0222642Y0339813D01*
X0223044Y0338934D01*
X0223425Y0338046D01*
X0223784Y0337149D01*
X0224121Y0336243D01*
X0224435Y0335330D01*
X0224727Y0334409D01*
X0224996Y0333480D01*
X0225242Y0332546D01*
X0225465Y0331606D01*
X0225666Y0330661D01*
X0225842Y0329711D01*
X0225996Y0328757D01*
X0226126Y0327799D01*
X0226232Y0326839D01*
X0226315Y0325876D01*
X0226375Y0324912D01*
X0226410Y0323946D01*
X0226422Y0322980D01*
X0226410Y0322014D01*
X0226375Y0321048D01*
X0226315Y0320084D01*
X0226232Y0319121D01*
X0226126Y0318161D01*
X0225996Y0317203D01*
X0225842Y0316249D01*
X0225666Y0315299D01*
X0225465Y0314354D01*
X0225242Y0313414D01*
X0224996Y0312480D01*
X0224727Y0311551D01*
X0224435Y0310630D01*
X0224121Y0309717D01*
X0223784Y0308811D01*
X0223425Y0307914D01*
X0223044Y0307026D01*
X0222642Y0306147D01*
X0222218Y0305279D01*
X0221773Y0304421D01*
X0221307Y0303575D01*
X0220821Y0302740D01*
X0220314Y0301917D01*
X0219787Y0301107D01*
X0219240Y0300310D01*
X0218674Y0299527D01*
X0218089Y0298758D01*
X0217485Y0298004D01*
X0216863Y0297265D01*
X0216223Y0296541D01*
X0215566Y0295833D01*
X0214891Y0295141D01*
X0214199Y0294466D01*
X0213491Y0293809D01*
X0212767Y0293169D01*
X0212028Y0292547D01*
X0211274Y0291943D01*
X0210505Y0291358D01*
X0209722Y0290792D01*
X0208925Y0290245D01*
X0208115Y0289718D01*
X0207292Y0289211D01*
X0206457Y0288725D01*
X0205611Y0288259D01*
X0204753Y0287814D01*
X0203885Y0287390D01*
X0203006Y0286988D01*
X0202118Y0286607D01*
X0201221Y0286248D01*
X0200315Y0285911D01*
X0199402Y0285597D01*
X0198481Y0285305D01*
X0197552Y0285036D01*
X0196618Y0284790D01*
X0195678Y0284567D01*
X0194733Y0284366D01*
X0193783Y0284190D01*
X0192829Y0284036D01*
X0191871Y0283906D01*
X0190911Y0283800D01*
X0189948Y0283717D01*
X0188984Y0283657D01*
X0188018Y0283622D01*
X0187052Y0283610D01*
X0186086Y0283622D01*
X0185120Y0283657D01*
X0184156Y0283717D01*
X0183193Y0283800D01*
X0182233Y0283906D01*
X0181275Y0284036D01*
X0180321Y0284190D01*
X0179371Y0284366D01*
X0178426Y0284567D01*
X0177486Y0284790D01*
X0176552Y0285036D01*
X0175623Y0285305D01*
X0174702Y0285597D01*
X0173789Y0285911D01*
X0172883Y0286248D01*
X0171986Y0286607D01*
X0171098Y0286988D01*
X0170219Y0287390D01*
X0169351Y0287814D01*
X0168493Y0288259D01*
X0167647Y0288725D01*
X0166812Y0289211D01*
X0165989Y0289718D01*
X0165179Y0290245D01*
X0164382Y0290792D01*
X0163599Y0291358D01*
X0162830Y0291943D01*
X0162076Y0292547D01*
X0161337Y0293169D01*
X0160613Y0293809D01*
X0159905Y0294466D01*
X0159213Y0295141D01*
X0158538Y0295833D01*
X0157881Y0296541D01*
X0157241Y0297265D01*
X0156619Y0298004D01*
X0156015Y0298758D01*
X0155430Y0299527D01*
X0154864Y0300310D01*
X0154317Y0301107D01*
X0153790Y0301917D01*
X0153283Y0302740D01*
X0152797Y0303575D01*
X0152331Y0304421D01*
X0151886Y0305279D01*
X0151462Y0306147D01*
X0151060Y0307026D01*
X0150679Y0307914D01*
X0150320Y0308811D01*
X0149983Y0309717D01*
X0149669Y0310630D01*
X0149377Y0311551D01*
X0149108Y0312480D01*
X0148862Y0313414D01*
X0148639Y0314354D01*
X0148438Y0315299D01*
X0148262Y0316249D01*
X0148108Y0317203D01*
X0147978Y0318161D01*
X0147872Y0319121D01*
X0147789Y0320084D01*
X0147729Y0321048D01*
X0147694Y0322014D01*
X0147682Y0322980D01*
X0109997Y0379718D02*
X0110748Y0380469D01*
X0110748Y0381219D01*
X0109997Y0381970D01*
X0107745Y0381970D01*
X0107745Y0380469D01*
X0108496Y0379718D01*
X0109997Y0379718D01*
X0107745Y0381970D02*
X0109246Y0383471D01*
X0110748Y0384222D01*
X0106144Y0383471D02*
X0106144Y0381970D01*
X0105393Y0381219D01*
X0103141Y0381219D01*
X0103141Y0379718D02*
X0103141Y0384222D01*
X0105393Y0384222D01*
X0106144Y0383471D01*
X0104642Y0381219D02*
X0106144Y0379718D01*
X0101871Y0364554D02*
X0100604Y0364554D01*
X0100604Y0363603D01*
X0101237Y0363920D01*
X0101554Y0363920D01*
X0101871Y0363603D01*
X0101871Y0362970D01*
X0101554Y0362653D01*
X0100921Y0362653D01*
X0100604Y0362970D01*
X0099661Y0362970D02*
X0099661Y0363286D01*
X0099345Y0363603D01*
X0098711Y0363603D01*
X0098394Y0363920D01*
X0098394Y0364237D01*
X0098711Y0364554D01*
X0099345Y0364554D01*
X0099661Y0364237D01*
X0099028Y0364871D02*
X0099028Y0362336D01*
X0099345Y0362653D02*
X0099661Y0362970D01*
X0099345Y0362653D02*
X0098711Y0362653D01*
X0098394Y0362970D01*
X0097452Y0362970D02*
X0097452Y0364554D01*
X0096184Y0364554D02*
X0096184Y0362970D01*
X0096501Y0362653D01*
X0097135Y0362653D01*
X0097452Y0362970D01*
X0082034Y0377073D02*
X0077530Y0377073D01*
X0077530Y0379325D01*
X0078281Y0380076D01*
X0079782Y0380076D01*
X0080533Y0379325D01*
X0080533Y0377073D01*
X0080533Y0378574D02*
X0082034Y0380076D01*
X0081283Y0381677D02*
X0082034Y0382428D01*
X0082034Y0383929D01*
X0081283Y0384680D01*
X0079782Y0384680D01*
X0079032Y0383929D01*
X0079032Y0383178D01*
X0079782Y0381677D01*
X0077530Y0381677D01*
X0077530Y0384680D01*
X0062225Y0324531D02*
X0062237Y0325497D01*
X0062272Y0326463D01*
X0062332Y0327427D01*
X0062415Y0328390D01*
X0062521Y0329350D01*
X0062651Y0330308D01*
X0062805Y0331262D01*
X0062981Y0332212D01*
X0063182Y0333157D01*
X0063405Y0334097D01*
X0063651Y0335031D01*
X0063920Y0335960D01*
X0064212Y0336881D01*
X0064526Y0337794D01*
X0064863Y0338700D01*
X0065222Y0339597D01*
X0065603Y0340485D01*
X0066005Y0341364D01*
X0066429Y0342232D01*
X0066874Y0343090D01*
X0067340Y0343936D01*
X0067826Y0344771D01*
X0068333Y0345594D01*
X0068860Y0346404D01*
X0069407Y0347201D01*
X0069973Y0347984D01*
X0070558Y0348753D01*
X0071162Y0349507D01*
X0071784Y0350246D01*
X0072424Y0350970D01*
X0073081Y0351678D01*
X0073756Y0352370D01*
X0074448Y0353045D01*
X0075156Y0353702D01*
X0075880Y0354342D01*
X0076619Y0354964D01*
X0077373Y0355568D01*
X0078142Y0356153D01*
X0078925Y0356719D01*
X0079722Y0357266D01*
X0080532Y0357793D01*
X0081355Y0358300D01*
X0082190Y0358786D01*
X0083036Y0359252D01*
X0083894Y0359697D01*
X0084762Y0360121D01*
X0085641Y0360523D01*
X0086529Y0360904D01*
X0087426Y0361263D01*
X0088332Y0361600D01*
X0089245Y0361914D01*
X0090166Y0362206D01*
X0091095Y0362475D01*
X0092029Y0362721D01*
X0092969Y0362944D01*
X0093914Y0363145D01*
X0094864Y0363321D01*
X0095818Y0363475D01*
X0096776Y0363605D01*
X0097736Y0363711D01*
X0098699Y0363794D01*
X0099663Y0363854D01*
X0100629Y0363889D01*
X0101595Y0363901D01*
X0102561Y0363889D01*
X0103527Y0363854D01*
X0104491Y0363794D01*
X0105454Y0363711D01*
X0106414Y0363605D01*
X0107372Y0363475D01*
X0108326Y0363321D01*
X0109276Y0363145D01*
X0110221Y0362944D01*
X0111161Y0362721D01*
X0112095Y0362475D01*
X0113024Y0362206D01*
X0113945Y0361914D01*
X0114858Y0361600D01*
X0115764Y0361263D01*
X0116661Y0360904D01*
X0117549Y0360523D01*
X0118428Y0360121D01*
X0119296Y0359697D01*
X0120154Y0359252D01*
X0121000Y0358786D01*
X0121835Y0358300D01*
X0122658Y0357793D01*
X0123468Y0357266D01*
X0124265Y0356719D01*
X0125048Y0356153D01*
X0125817Y0355568D01*
X0126571Y0354964D01*
X0127310Y0354342D01*
X0128034Y0353702D01*
X0128742Y0353045D01*
X0129434Y0352370D01*
X0130109Y0351678D01*
X0130766Y0350970D01*
X0131406Y0350246D01*
X0132028Y0349507D01*
X0132632Y0348753D01*
X0133217Y0347984D01*
X0133783Y0347201D01*
X0134330Y0346404D01*
X0134857Y0345594D01*
X0135364Y0344771D01*
X0135850Y0343936D01*
X0136316Y0343090D01*
X0136761Y0342232D01*
X0137185Y0341364D01*
X0137587Y0340485D01*
X0137968Y0339597D01*
X0138327Y0338700D01*
X0138664Y0337794D01*
X0138978Y0336881D01*
X0139270Y0335960D01*
X0139539Y0335031D01*
X0139785Y0334097D01*
X0140008Y0333157D01*
X0140209Y0332212D01*
X0140385Y0331262D01*
X0140539Y0330308D01*
X0140669Y0329350D01*
X0140775Y0328390D01*
X0140858Y0327427D01*
X0140918Y0326463D01*
X0140953Y0325497D01*
X0140965Y0324531D01*
X0140953Y0323565D01*
X0140918Y0322599D01*
X0140858Y0321635D01*
X0140775Y0320672D01*
X0140669Y0319712D01*
X0140539Y0318754D01*
X0140385Y0317800D01*
X0140209Y0316850D01*
X0140008Y0315905D01*
X0139785Y0314965D01*
X0139539Y0314031D01*
X0139270Y0313102D01*
X0138978Y0312181D01*
X0138664Y0311268D01*
X0138327Y0310362D01*
X0137968Y0309465D01*
X0137587Y0308577D01*
X0137185Y0307698D01*
X0136761Y0306830D01*
X0136316Y0305972D01*
X0135850Y0305126D01*
X0135364Y0304291D01*
X0134857Y0303468D01*
X0134330Y0302658D01*
X0133783Y0301861D01*
X0133217Y0301078D01*
X0132632Y0300309D01*
X0132028Y0299555D01*
X0131406Y0298816D01*
X0130766Y0298092D01*
X0130109Y0297384D01*
X0129434Y0296692D01*
X0128742Y0296017D01*
X0128034Y0295360D01*
X0127310Y0294720D01*
X0126571Y0294098D01*
X0125817Y0293494D01*
X0125048Y0292909D01*
X0124265Y0292343D01*
X0123468Y0291796D01*
X0122658Y0291269D01*
X0121835Y0290762D01*
X0121000Y0290276D01*
X0120154Y0289810D01*
X0119296Y0289365D01*
X0118428Y0288941D01*
X0117549Y0288539D01*
X0116661Y0288158D01*
X0115764Y0287799D01*
X0114858Y0287462D01*
X0113945Y0287148D01*
X0113024Y0286856D01*
X0112095Y0286587D01*
X0111161Y0286341D01*
X0110221Y0286118D01*
X0109276Y0285917D01*
X0108326Y0285741D01*
X0107372Y0285587D01*
X0106414Y0285457D01*
X0105454Y0285351D01*
X0104491Y0285268D01*
X0103527Y0285208D01*
X0102561Y0285173D01*
X0101595Y0285161D01*
X0100629Y0285173D01*
X0099663Y0285208D01*
X0098699Y0285268D01*
X0097736Y0285351D01*
X0096776Y0285457D01*
X0095818Y0285587D01*
X0094864Y0285741D01*
X0093914Y0285917D01*
X0092969Y0286118D01*
X0092029Y0286341D01*
X0091095Y0286587D01*
X0090166Y0286856D01*
X0089245Y0287148D01*
X0088332Y0287462D01*
X0087426Y0287799D01*
X0086529Y0288158D01*
X0085641Y0288539D01*
X0084762Y0288941D01*
X0083894Y0289365D01*
X0083036Y0289810D01*
X0082190Y0290276D01*
X0081355Y0290762D01*
X0080532Y0291269D01*
X0079722Y0291796D01*
X0078925Y0292343D01*
X0078142Y0292909D01*
X0077373Y0293494D01*
X0076619Y0294098D01*
X0075880Y0294720D01*
X0075156Y0295360D01*
X0074448Y0296017D01*
X0073756Y0296692D01*
X0073081Y0297384D01*
X0072424Y0298092D01*
X0071784Y0298816D01*
X0071162Y0299555D01*
X0070558Y0300309D01*
X0069973Y0301078D01*
X0069407Y0301861D01*
X0068860Y0302658D01*
X0068333Y0303468D01*
X0067826Y0304291D01*
X0067340Y0305126D01*
X0066874Y0305972D01*
X0066429Y0306830D01*
X0066005Y0307698D01*
X0065603Y0308577D01*
X0065222Y0309465D01*
X0064863Y0310362D01*
X0064526Y0311268D01*
X0064212Y0312181D01*
X0063920Y0313102D01*
X0063651Y0314031D01*
X0063405Y0314965D01*
X0063182Y0315905D01*
X0062981Y0316850D01*
X0062805Y0317800D01*
X0062651Y0318754D01*
X0062521Y0319712D01*
X0062415Y0320672D01*
X0062332Y0321635D01*
X0062272Y0322599D01*
X0062237Y0323565D01*
X0062225Y0324531D01*
X0124837Y0404903D02*
X0126105Y0404903D01*
X0127047Y0405220D02*
X0127364Y0404903D01*
X0127998Y0404903D01*
X0128315Y0405220D01*
X0128315Y0406488D01*
X0127998Y0406805D01*
X0127364Y0406805D01*
X0127047Y0406488D01*
X0127047Y0405220D01*
X0124837Y0404903D02*
X0124837Y0406805D01*
X0129257Y0406171D02*
X0129257Y0404903D01*
X0129257Y0405854D02*
X0130525Y0405854D01*
X0130525Y0406171D02*
X0130525Y0404903D01*
X0131467Y0404903D02*
X0131467Y0406805D01*
X0132418Y0406805D01*
X0132735Y0406488D01*
X0132735Y0405220D01*
X0132418Y0404903D01*
X0131467Y0404903D01*
X0130525Y0406171D02*
X0129891Y0406805D01*
X0129257Y0406171D01*
X0133677Y0406488D02*
X0133677Y0405220D01*
X0133994Y0404903D01*
X0134628Y0404903D01*
X0134945Y0405220D01*
X0135887Y0404903D02*
X0137154Y0404903D01*
X0138097Y0404903D02*
X0138097Y0406805D01*
X0137154Y0406805D02*
X0135887Y0406805D01*
X0135887Y0404903D01*
X0135887Y0405854D02*
X0136521Y0405854D01*
X0134945Y0406488D02*
X0134628Y0406805D01*
X0133994Y0406805D01*
X0133677Y0406488D01*
X0138097Y0404903D02*
X0139364Y0404903D01*
X0140306Y0404903D02*
X0140306Y0406805D01*
X0140306Y0404903D02*
X0141574Y0404903D01*
X0084932Y0075309D02*
X0084298Y0075309D01*
X0083981Y0074992D01*
X0083039Y0075309D02*
X0082405Y0075309D01*
X0082722Y0075309D02*
X0082722Y0073724D01*
X0082405Y0073407D01*
X0082088Y0073407D01*
X0081771Y0073724D01*
X0083981Y0073407D02*
X0085249Y0074675D01*
X0085249Y0074992D01*
X0084932Y0075309D01*
X0085249Y0073407D02*
X0083981Y0073407D01*
X0141184Y0072954D02*
X0141184Y0071370D01*
X0141501Y0071053D01*
X0142135Y0071053D01*
X0142452Y0071370D01*
X0142452Y0072954D01*
X0143394Y0072637D02*
X0143711Y0072954D01*
X0144345Y0072954D01*
X0144661Y0072637D01*
X0144345Y0072003D02*
X0143711Y0072003D01*
X0143394Y0072320D01*
X0143394Y0072637D01*
X0144028Y0073271D02*
X0144028Y0070736D01*
X0144345Y0071053D02*
X0144661Y0071370D01*
X0144661Y0071686D01*
X0144345Y0072003D01*
X0144345Y0071053D02*
X0143711Y0071053D01*
X0143394Y0071370D01*
X0145604Y0072003D02*
X0146871Y0072003D01*
X0146554Y0071053D02*
X0146554Y0072954D01*
X0145604Y0072003D01*
X0205944Y0064808D02*
X0206260Y0064808D01*
X0206894Y0064174D01*
X0207845Y0064174D01*
X0206894Y0064174D02*
X0206260Y0063540D01*
X0205944Y0063540D01*
X0206260Y0062598D02*
X0206894Y0062598D01*
X0207211Y0062281D01*
X0207211Y0061330D01*
X0207845Y0061330D02*
X0205944Y0061330D01*
X0205944Y0062281D01*
X0206260Y0062598D01*
X0207211Y0061964D02*
X0207845Y0062598D01*
X0207845Y0060388D02*
X0207845Y0059120D01*
X0205944Y0059120D01*
X0205944Y0060388D01*
X0206894Y0059754D02*
X0206894Y0059120D01*
X0205944Y0058178D02*
X0205944Y0056911D01*
X0205944Y0057544D02*
X0207845Y0057544D01*
X0207845Y0055335D02*
X0205944Y0055335D01*
X0205944Y0055968D02*
X0205944Y0054701D01*
X0206577Y0053759D02*
X0207845Y0053759D01*
X0206894Y0053759D02*
X0206894Y0052491D01*
X0206577Y0052491D02*
X0205944Y0053125D01*
X0206577Y0053759D01*
X0206577Y0052491D02*
X0207845Y0052491D01*
X0207528Y0051549D02*
X0207845Y0051232D01*
X0207845Y0050281D01*
X0205944Y0050281D01*
X0205944Y0051232D01*
X0206260Y0051549D01*
X0206577Y0051549D01*
X0206894Y0051232D01*
X0206894Y0050281D01*
X0206894Y0051232D02*
X0207211Y0051549D01*
X0207528Y0051549D01*
D15*
X0071284Y0359831D03*
X0071284Y0388231D03*
D16*
X0124587Y0386153D02*
X0124587Y0401153D01*
X0127087Y0403653D01*
X0132087Y0403653D01*
X0134587Y0401153D01*
X0137087Y0403653D01*
X0142087Y0403653D01*
X0144587Y0401153D01*
X0147087Y0403653D01*
X0152087Y0403653D01*
X0154587Y0401153D01*
X0157087Y0403653D01*
X0162087Y0403653D01*
X0164587Y0401153D01*
X0164587Y0386153D01*
X0162087Y0383653D01*
X0157087Y0383653D01*
X0154587Y0386153D01*
X0152087Y0383653D01*
X0147087Y0383653D01*
X0144587Y0386153D01*
X0142087Y0383653D01*
X0137087Y0383653D01*
X0134587Y0386153D01*
X0132087Y0383653D01*
X0127087Y0383653D01*
X0124587Y0386153D01*
X0124587Y0401153D01*
X0127087Y0403653D01*
X0124587Y0386153D02*
X0127087Y0383653D01*
X0127087Y0382653D02*
X0132087Y0382653D01*
X0109021Y0072157D02*
X0104021Y0072157D01*
X0101521Y0069657D01*
X0101521Y0054657D01*
X0104021Y0052157D01*
X0109021Y0052157D01*
X0111521Y0054657D01*
X0111521Y0069657D01*
X0109021Y0072157D01*
X0101521Y0069657D02*
X0099021Y0072157D01*
X0094021Y0072157D01*
X0091521Y0069657D01*
X0091521Y0054657D01*
X0094021Y0052157D01*
X0099021Y0052157D01*
X0101521Y0054657D01*
X0091521Y0054657D02*
X0089021Y0052157D01*
X0084021Y0052157D01*
X0081521Y0054657D01*
X0081521Y0069657D01*
X0084021Y0072157D01*
X0089021Y0072157D01*
X0091521Y0069657D01*
X0089021Y0050838D02*
X0084021Y0050838D01*
X0159953Y0054968D02*
X0205741Y0054968D01*
X0205741Y0072094D01*
X0159953Y0072094D01*
X0159953Y0054968D01*
X0208595Y0052531D02*
X0211095Y0050031D01*
X0216095Y0050031D01*
X0218595Y0052531D01*
X0218595Y0057531D01*
X0216095Y0060031D01*
X0218595Y0062531D01*
X0218595Y0067531D01*
X0216095Y0070031D01*
X0211095Y0070031D01*
X0208595Y0067531D01*
X0208595Y0062531D01*
X0211095Y0060031D01*
X0208595Y0057531D01*
X0208595Y0052531D01*
D17*
X0213192Y0053005D02*
X0219497Y0053005D01*
X0217395Y0050904D01*
X0219497Y0048802D01*
X0213192Y0048802D01*
X0214243Y0046560D02*
X0213192Y0045509D01*
X0213192Y0043407D01*
X0214243Y0042356D01*
X0215294Y0042356D01*
X0216344Y0043407D01*
X0216344Y0045509D01*
X0217395Y0046560D01*
X0218446Y0046560D01*
X0219497Y0045509D01*
X0219497Y0043407D01*
X0218446Y0042356D01*
X0219497Y0040114D02*
X0217395Y0038013D01*
X0217395Y0039064D02*
X0217395Y0035911D01*
X0219497Y0035911D02*
X0213192Y0035911D01*
X0213192Y0039064D01*
X0214243Y0040114D01*
X0216344Y0040114D01*
X0217395Y0039064D01*
X0219497Y0033669D02*
X0219497Y0029465D01*
X0213192Y0029465D01*
X0213192Y0033669D01*
X0216344Y0031567D02*
X0216344Y0029465D01*
X0213192Y0027223D02*
X0213192Y0023020D01*
X0213192Y0025122D02*
X0219497Y0025122D01*
X0219497Y0018676D02*
X0213192Y0018676D01*
X0213192Y0016574D02*
X0213192Y0020778D01*
X0215294Y0014332D02*
X0219497Y0014332D01*
X0216344Y0014332D02*
X0216344Y0010129D01*
X0215294Y0010129D02*
X0213192Y0012231D01*
X0215294Y0014332D01*
X0215294Y0010129D02*
X0219497Y0010129D01*
X0218446Y0007887D02*
X0217395Y0007887D01*
X0216344Y0006836D01*
X0216344Y0003683D01*
X0213192Y0003683D02*
X0213192Y0006836D01*
X0214243Y0007887D01*
X0215294Y0007887D01*
X0216344Y0006836D01*
X0218446Y0007887D02*
X0219497Y0006836D01*
X0219497Y0003683D01*
X0213192Y0003683D01*
X0213192Y0055247D02*
X0213192Y0057349D01*
X0213192Y0056298D02*
X0219497Y0056298D01*
X0219497Y0055247D02*
X0219497Y0057349D01*
X0219497Y0061646D02*
X0213192Y0061646D01*
X0213192Y0059544D02*
X0213192Y0063748D01*
X0214243Y0065990D02*
X0218446Y0065990D01*
X0219497Y0067041D01*
X0219497Y0069142D01*
X0218446Y0070193D01*
X0219497Y0072435D02*
X0213192Y0072435D01*
X0214243Y0070193D02*
X0213192Y0069142D01*
X0213192Y0067041D01*
X0214243Y0065990D01*
X0216344Y0072435D02*
X0216344Y0076639D01*
X0213192Y0076639D02*
X0219497Y0076639D01*
D18*
X0063288Y0083939D02*
X0063288Y0087008D01*
X0062521Y0088543D02*
X0062521Y0090845D01*
X0061754Y0091612D01*
X0058685Y0091612D01*
X0057917Y0090845D01*
X0057917Y0088543D01*
X0062521Y0088543D01*
X0061754Y0093147D02*
X0058685Y0093147D01*
X0057917Y0093914D01*
X0057917Y0095449D01*
X0058685Y0096216D01*
X0061754Y0096216D02*
X0062521Y0095449D01*
X0062521Y0093914D01*
X0061754Y0093147D01*
X0063288Y0097751D02*
X0063288Y0100820D01*
X0061754Y0102354D02*
X0062521Y0103122D01*
X0062521Y0104656D01*
X0061754Y0105424D01*
X0061754Y0106958D02*
X0062521Y0107726D01*
X0062521Y0109260D01*
X0061754Y0110028D01*
X0058685Y0110028D01*
X0057917Y0109260D01*
X0057917Y0107726D01*
X0058685Y0106958D01*
X0061754Y0106958D01*
X0058685Y0105424D02*
X0057917Y0104656D01*
X0057917Y0103122D01*
X0058685Y0102354D01*
X0061754Y0102354D01*
X0062521Y0111562D02*
X0057917Y0111562D01*
X0062521Y0114632D01*
X0057917Y0114632D01*
X0057917Y0116166D02*
X0060986Y0116166D01*
X0062521Y0117701D01*
X0060986Y0119236D01*
X0057917Y0119236D01*
X0057917Y0120770D02*
X0062521Y0120770D01*
X0062521Y0123839D01*
X0062521Y0125374D02*
X0057917Y0125374D01*
X0057917Y0127676D01*
X0058685Y0128443D01*
X0060219Y0128443D01*
X0060986Y0127676D01*
X0060986Y0125374D01*
X0060986Y0126909D02*
X0062521Y0128443D01*
X0062521Y0131513D02*
X0057917Y0131513D01*
X0057917Y0133047D02*
X0057917Y0129978D01*
X0057917Y0134582D02*
X0062521Y0134582D01*
X0062521Y0137651D01*
X0062521Y0139186D02*
X0057917Y0139186D01*
X0057917Y0141488D01*
X0058685Y0142255D01*
X0060219Y0142255D01*
X0060986Y0141488D01*
X0060986Y0139186D01*
X0060986Y0140721D02*
X0062521Y0142255D01*
X0057917Y0137651D02*
X0057917Y0134582D01*
X0060219Y0134582D02*
X0060219Y0136117D01*
X0057917Y0123839D02*
X0057917Y0120770D01*
X0060219Y0120770D02*
X0060219Y0122305D01*
X0058685Y0082404D02*
X0057917Y0081637D01*
X0057917Y0080102D01*
X0058685Y0079335D01*
X0061754Y0079335D01*
X0062521Y0080102D01*
X0062521Y0081637D01*
X0061754Y0082404D01*
X0061754Y0077800D02*
X0058685Y0077800D01*
X0057917Y0077033D01*
X0057917Y0074731D01*
X0062521Y0074731D01*
X0062521Y0077033D01*
X0061754Y0077800D01*
M02*
