G75*
%MOIN*%
%OFA0B0*%
%FSLAX25Y25*%
%IPPOS*%
%LPD*%
%AMOC8*
5,1,8,0,0,1.08239X$1,22.5*
%
%ADD10OC8,0.07100*%
%ADD11OC8,0.06400*%
%ADD12C,0.08200*%
%ADD13C,0.07334*%
%ADD14C,0.04737*%
%ADD15C,0.07137*%
%ADD16C,0.13800*%
%ADD17C,0.06400*%
%ADD18C,0.04578*%
%ADD19C,0.04972*%
%ADD20C,0.06400*%
D10*
X0100315Y0014847D03*
X0100315Y0024847D03*
X0116063Y0238083D03*
X0126063Y0238083D03*
X0181968Y0237891D03*
X0191968Y0237891D03*
X0219275Y0237926D03*
X0229275Y0237926D03*
X0291563Y0238083D03*
X0301563Y0238083D03*
X0357468Y0237891D03*
X0367468Y0237891D03*
X0299366Y0416658D03*
X0279366Y0416658D03*
X0342102Y0675989D03*
X0362102Y0675989D03*
X0186102Y0675989D03*
X0166102Y0675989D03*
X0123366Y0416658D03*
X0103366Y0416658D03*
X0053775Y0237926D03*
X0043775Y0237926D03*
X0275815Y0024847D03*
X0275815Y0014847D03*
D11*
X0220700Y0311800D03*
X0199011Y0311800D03*
X0199011Y0351800D03*
X0182133Y0351863D03*
X0220700Y0351800D03*
X0229515Y0351737D03*
X0269515Y0351737D03*
X0317633Y0351863D03*
X0357633Y0351863D03*
X0374511Y0351800D03*
X0374511Y0311800D03*
X0326362Y0676024D03*
X0326362Y0686024D03*
X0316362Y0676024D03*
X0302338Y0691107D03*
X0302338Y0711107D03*
X0288511Y0711020D03*
X0288511Y0691020D03*
X0150362Y0686024D03*
X0150362Y0676024D03*
X0140362Y0676024D03*
X0126338Y0691107D03*
X0126338Y0711107D03*
X0112511Y0711020D03*
X0112511Y0691020D03*
X0094015Y0351737D03*
X0054015Y0351737D03*
X0045200Y0351800D03*
X0045200Y0311800D03*
X0142133Y0351863D03*
D12*
X0060437Y0014926D03*
X0060437Y0024926D03*
X0070437Y0024926D03*
X0070437Y0014926D03*
X0080437Y0014926D03*
X0080437Y0024926D03*
X0146763Y0021300D03*
X0156763Y0021300D03*
X0166763Y0021300D03*
X0187511Y0022800D03*
X0187511Y0012800D03*
X0235937Y0014926D03*
X0235937Y0024926D03*
X0245937Y0024926D03*
X0245937Y0014926D03*
X0255937Y0014926D03*
X0255937Y0024926D03*
X0322263Y0021300D03*
X0332263Y0021300D03*
X0342263Y0021300D03*
X0363011Y0022800D03*
X0363011Y0012800D03*
X0309004Y0346422D03*
X0309004Y0356422D03*
X0299004Y0356422D03*
X0299004Y0346422D03*
X0289004Y0346422D03*
X0289004Y0356422D03*
X0279004Y0356422D03*
X0279004Y0346422D03*
X0256437Y0383926D03*
X0256437Y0393926D03*
X0246437Y0393926D03*
X0246437Y0383926D03*
X0236437Y0383926D03*
X0236437Y0393926D03*
X0234165Y0429572D03*
X0234165Y0439572D03*
X0234165Y0449572D03*
X0234165Y0459572D03*
X0234165Y0469572D03*
X0234165Y0479572D03*
X0234165Y0489572D03*
X0234165Y0499572D03*
X0234165Y0509572D03*
X0234165Y0519572D03*
X0234165Y0529572D03*
X0234165Y0539572D03*
X0237567Y0567335D03*
X0247567Y0567335D03*
X0257567Y0567335D03*
X0267567Y0567335D03*
X0277567Y0567335D03*
X0309342Y0521894D03*
X0319342Y0521894D03*
X0329342Y0521894D03*
X0339342Y0521894D03*
X0349342Y0521894D03*
X0359342Y0521894D03*
X0358842Y0431894D03*
X0348842Y0431894D03*
X0338842Y0431894D03*
X0328842Y0431894D03*
X0318842Y0431894D03*
X0308842Y0431894D03*
X0354165Y0409572D03*
X0354165Y0399572D03*
X0354165Y0389572D03*
X0276567Y0680792D03*
X0266567Y0680792D03*
X0256567Y0680792D03*
X0246567Y0680792D03*
X0236567Y0680792D03*
X0239633Y0719257D03*
X0229633Y0719257D03*
X0219633Y0719257D03*
X0249633Y0719257D03*
X0259633Y0719257D03*
X0286004Y0724257D03*
X0296004Y0724257D03*
X0183342Y0521894D03*
X0173342Y0521894D03*
X0163342Y0521894D03*
X0153342Y0521894D03*
X0143342Y0521894D03*
X0133342Y0521894D03*
X0101567Y0567335D03*
X0091567Y0567335D03*
X0081567Y0567335D03*
X0071567Y0567335D03*
X0061567Y0567335D03*
X0058165Y0539572D03*
X0058165Y0529572D03*
X0058165Y0519572D03*
X0058165Y0509572D03*
X0058165Y0499572D03*
X0058165Y0489572D03*
X0058165Y0479572D03*
X0058165Y0469572D03*
X0058165Y0459572D03*
X0058165Y0449572D03*
X0058165Y0439572D03*
X0058165Y0429572D03*
X0060437Y0393926D03*
X0060437Y0383926D03*
X0070437Y0383926D03*
X0070437Y0393926D03*
X0080437Y0393926D03*
X0080437Y0383926D03*
X0103504Y0356422D03*
X0103504Y0346422D03*
X0113504Y0346422D03*
X0123504Y0346422D03*
X0123504Y0356422D03*
X0113504Y0356422D03*
X0133504Y0356422D03*
X0133504Y0346422D03*
X0178165Y0389572D03*
X0178165Y0399572D03*
X0178165Y0409572D03*
X0182842Y0431894D03*
X0172842Y0431894D03*
X0162842Y0431894D03*
X0152842Y0431894D03*
X0142842Y0431894D03*
X0132842Y0431894D03*
X0100567Y0680792D03*
X0090567Y0680792D03*
X0080567Y0680792D03*
X0070567Y0680792D03*
X0060567Y0680792D03*
X0063633Y0719257D03*
X0073633Y0719257D03*
X0083633Y0719257D03*
X0110004Y0724257D03*
X0120004Y0724257D03*
X0053633Y0719257D03*
X0043633Y0719257D03*
D13*
X0058137Y0221800D03*
X0098137Y0221800D03*
X0138137Y0221800D03*
X0178137Y0221800D03*
X0233637Y0221800D03*
X0273637Y0221800D03*
X0313637Y0221800D03*
X0353637Y0221800D03*
X0303637Y0041800D03*
X0283637Y0041800D03*
X0243637Y0041800D03*
X0128137Y0041800D03*
X0108137Y0041800D03*
X0068137Y0041800D03*
D14*
X0074511Y0244867D03*
X0161468Y0246316D03*
X0250011Y0244867D03*
X0336968Y0246316D03*
D15*
X0321220Y0250253D03*
X0311968Y0256749D03*
X0313346Y0305371D03*
X0325157Y0313245D03*
X0352716Y0313245D03*
X0364527Y0301434D03*
X0368464Y0266001D03*
X0360590Y0254190D03*
X0281508Y0264552D03*
X0273633Y0252741D03*
X0277570Y0299985D03*
X0265759Y0311796D03*
X0238200Y0311796D03*
X0226389Y0303922D03*
X0225011Y0255300D03*
X0234263Y0248804D03*
X0192964Y0266001D03*
X0185090Y0254190D03*
X0189027Y0301434D03*
X0177216Y0313245D03*
X0149657Y0313245D03*
X0137846Y0305371D03*
X0136468Y0256749D03*
X0145720Y0250253D03*
X0106008Y0264552D03*
X0098133Y0252741D03*
X0102070Y0299985D03*
X0090259Y0311796D03*
X0062700Y0311796D03*
X0050889Y0303922D03*
X0049511Y0255300D03*
X0058763Y0248804D03*
D16*
X0073165Y0330572D03*
X0118165Y0389572D03*
X0163165Y0330572D03*
X0248665Y0330572D03*
X0294165Y0389572D03*
X0338665Y0330572D03*
X0293665Y0020572D03*
X0118165Y0020572D03*
X0163165Y0699572D03*
X0249165Y0699572D03*
X0339165Y0699572D03*
X0073165Y0699572D03*
D17*
X0075948Y0546048D03*
X0075948Y0536048D03*
X0075948Y0526048D03*
X0075948Y0516048D03*
X0075948Y0506048D03*
X0075948Y0496048D03*
X0075948Y0486048D03*
X0075948Y0476048D03*
X0075948Y0466048D03*
X0075948Y0456048D03*
X0075948Y0446048D03*
X0075948Y0436048D03*
X0105948Y0436048D03*
X0105948Y0446048D03*
X0105948Y0456048D03*
X0105948Y0466048D03*
X0105948Y0476048D03*
X0105948Y0486048D03*
X0105948Y0496048D03*
X0105948Y0506048D03*
X0105948Y0516048D03*
X0105948Y0526048D03*
X0105948Y0536048D03*
X0105948Y0546048D03*
X0251948Y0546048D03*
X0251948Y0536048D03*
X0251948Y0526048D03*
X0251948Y0516048D03*
X0251948Y0506048D03*
X0251948Y0496048D03*
X0251948Y0486048D03*
X0251948Y0476048D03*
X0251948Y0466048D03*
X0251948Y0456048D03*
X0251948Y0446048D03*
X0251948Y0436048D03*
X0281948Y0436048D03*
X0281948Y0446048D03*
X0281948Y0456048D03*
X0281948Y0466048D03*
X0281948Y0476048D03*
X0281948Y0486048D03*
X0281948Y0496048D03*
X0281948Y0506048D03*
X0281948Y0516048D03*
X0281948Y0526048D03*
X0281948Y0536048D03*
X0281948Y0546048D03*
D18*
X0363333Y0629259D03*
X0187333Y0629259D03*
D19*
X0157333Y0629364D03*
X0157123Y0569404D03*
X0187123Y0569260D03*
X0333123Y0569404D03*
X0363123Y0569260D03*
X0333333Y0629364D03*
D20*
X0337050Y0654737D02*
X0342650Y0654737D01*
X0367050Y0654737D02*
X0372650Y0654737D01*
X0196650Y0654737D02*
X0191050Y0654737D01*
X0166650Y0654737D02*
X0161050Y0654737D01*
M02*
