%
M48
M72
T01C0.01378
T02C0.01772
T03C0.03200
T04C0.03937
T05C0.04000
T06C0.04134
T07C0.13000
%
T01
X100511Y66800
X276011Y66800
X264511Y409800
X257511Y412300
X243011Y547300
X187333Y629259
X88511Y409800
X81511Y412300
X67011Y547300
X363333Y629259
T02
X333333Y629364
X333123Y569404
X363123Y569260
X187123Y569260
X157123Y569404
X157333Y629364
T03
X163850Y654737
X166102Y675989
X150362Y676024
X150362Y686024
X140362Y676024
X126338Y691107
X126338Y711107
X112511Y711020
X112511Y691020
X186102Y675989
X193850Y654737
X251948Y546048
X251948Y536048
X251948Y526048
X251948Y516048
X251948Y506048
X251948Y496048
X251948Y486048
X251948Y476048
X251948Y466048
X251948Y456048
X251948Y446048
X251948Y436048
X281948Y436048
X281948Y446048
X281948Y456048
X281948Y466048
X281948Y476048
X281948Y486048
X281948Y496048
X281948Y506048
X281948Y516048
X281948Y526048
X281948Y536048
X281948Y546048
X339850Y654737
X342102Y675989
X326362Y676024
X326362Y686024
X316362Y676024
X302338Y691107
X302338Y711107
X288511Y711020
X288511Y691020
X362102Y675989
X369850Y654737
X299366Y416658
X279366Y416658
X269515Y351737
X229515Y351737
X220700Y351800
X199011Y351800
X182133Y351863
X199011Y311800
X220700Y311800
X219275Y237926
X229275Y237926
X191968Y237891
X181968Y237891
X126063Y238083
X116063Y238083
X94015Y351737
X103366Y416658
X105948Y436048
X105948Y446048
X105948Y456048
X105948Y466048
X105948Y476048
X105948Y486048
X105948Y496048
X105948Y506048
X105948Y516048
X105948Y526048
X105948Y536048
X105948Y546048
X75948Y546048
X75948Y536048
X75948Y526048
X75948Y516048
X75948Y506048
X75948Y496048
X75948Y486048
X75948Y476048
X75948Y466048
X75948Y456048
X75948Y446048
X75948Y436048
X54015Y351737
X45200Y351800
X45200Y311800
X43775Y237926
X53775Y237926
X142133Y351863
X123366Y416658
X291563Y238083
X301563Y238083
X357468Y237891
X367468Y237891
X374511Y311800
X374511Y351800
X357633Y351863
X317633Y351863
X275815Y24847
X275815Y14847
X100315Y14847
X100315Y24847
T04
X74511Y244867
X58763Y248804
X49511Y255300
X50889Y303922
X62700Y311796
X90259Y311796
X102070Y299985
X106008Y264552
X98133Y252741
X136468Y256749
X145720Y250253
X161468Y246316
X185090Y254190
X192964Y266001
X189027Y301434
X177216Y313245
X149657Y313245
X137846Y305371
X226389Y303922
X238200Y311796
X265759Y311796
X277570Y299985
X281508Y264552
X273633Y252741
X250011Y244867
X234263Y248804
X225011Y255300
X311968Y256749
X321220Y250253
X336968Y246316
X360590Y254190
X368464Y266001
X364527Y301434
X352716Y313245
X325157Y313245
X313346Y305371
T05
X60437Y14926
X60437Y24926
X70437Y24926
X70437Y14926
X80437Y14926
X80437Y24926
X146763Y21300
X156763Y21300
X166763Y21300
X187511Y22800
X187511Y12800
X235937Y14926
X235937Y24926
X245937Y24926
X245937Y14926
X255937Y14926
X255937Y24926
X322263Y21300
X332263Y21300
X342263Y21300
X363011Y22800
X363011Y12800
X309004Y346422
X309004Y356422
X299004Y356422
X299004Y346422
X289004Y346422
X289004Y356422
X279004Y356422
X279004Y346422
X256437Y383926
X256437Y393926
X246437Y393926
X246437Y383926
X236437Y383926
X236437Y393926
X234165Y429572
X234165Y439572
X234165Y449572
X234165Y459572
X234165Y469572
X234165Y479572
X234165Y489572
X234165Y499572
X234165Y509572
X234165Y519572
X234165Y529572
X234165Y539572
X237567Y567335
X247567Y567335
X257567Y567335
X267567Y567335
X277567Y567335
X309342Y521894
X319342Y521894
X329342Y521894
X339342Y521894
X349342Y521894
X359342Y521894
X358842Y431894
X348842Y431894
X338842Y431894
X328842Y431894
X318842Y431894
X308842Y431894
X354165Y409572
X354165Y399572
X354165Y389572
X276567Y680792
X266567Y680792
X256567Y680792
X246567Y680792
X236567Y680792
X239633Y719257
X229633Y719257
X219633Y719257
X249633Y719257
X259633Y719257
X286004Y724257
X296004Y724257
X183342Y521894
X173342Y521894
X163342Y521894
X153342Y521894
X143342Y521894
X133342Y521894
X101567Y567335
X91567Y567335
X81567Y567335
X71567Y567335
X61567Y567335
X58165Y539572
X58165Y529572
X58165Y519572
X58165Y509572
X58165Y499572
X58165Y489572
X58165Y479572
X58165Y469572
X58165Y459572
X58165Y449572
X58165Y439572
X58165Y429572
X60437Y393926
X60437Y383926
X70437Y383926
X70437Y393926
X80437Y393926
X80437Y383926
X103504Y356422
X103504Y346422
X113504Y346422
X123504Y346422
X123504Y356422
X113504Y356422
X133504Y356422
X133504Y346422
X178165Y389572
X178165Y399572
X178165Y409572
X182842Y431894
X172842Y431894
X162842Y431894
X152842Y431894
X142842Y431894
X132842Y431894
X100567Y680792
X90567Y680792
X80567Y680792
X70567Y680792
X60567Y680792
X63633Y719257
X73633Y719257
X83633Y719257
X110004Y724257
X120004Y724257
X53633Y719257
X43633Y719257
T06
X58137Y221800
X98137Y221800
X138137Y221800
X178137Y221800
X233637Y221800
X273637Y221800
X313637Y221800
X353637Y221800
X303637Y41800
X283637Y41800
X243637Y41800
X128137Y41800
X108137Y41800
X68137Y41800
T07
X118165Y20572
X73165Y330572
X118165Y389572
X163165Y330572
X248665Y330572
X294165Y389572
X338665Y330572
X293665Y20572
X249165Y699572
X163165Y699572
X73165Y699572
X339165Y699572
M30
